<?xml version="1.0" encoding="UTF-8" standalone="no"?>
<!-- Created with Inkscape (http://www.inkscape.org/) -->

<svg
   width="210mm"
   height="297mm"
   viewBox="0 0 210 297"
   version="1.1"
   id="svg5"
   inkscape:version="1.2.1 (9c6d41e410, 2022-07-14)"
   sodipodi:docname="water_and_heater_l_working.svg"
   xmlns:inkscape="http://www.inkscape.org/namespaces/inkscape"
   xmlns:sodipodi="http://sodipodi.sourceforge.net/DTD/sodipodi-0.dtd"
   xmlns="http://www.w3.org/2000/svg"
   xmlns:svg="http://www.w3.org/2000/svg">
  <sodipodi:namedview
     id="namedview7"
     pagecolor="#ffffff"
     bordercolor="#000000"
     borderopacity="0.25"
     inkscape:showpageshadow="2"
     inkscape:pageopacity="0.0"
     inkscape:pagecheckerboard="0"
     inkscape:deskcolor="#d1d1d1"
     inkscape:document-units="mm"
     showgrid="false"
     inkscape:zoom="1.0544998"
     inkscape:cx="-191.08586"
     inkscape:cy="337.60083"
     inkscape:window-width="1920"
     inkscape:window-height="1017"
     inkscape:window-x="-8"
     inkscape:window-y="-8"
     inkscape:window-maximized="1"
     inkscape:current-layer="layer1" />
  <defs
     id="defs2" />
  <g
     inkscape:label="Camada 1"
     inkscape:groupmode="layer"
     id="layer1">
    <rect
       style="fill:#ffffff;fill-opacity:0.31;stroke:#000000;stroke-width:4.9;stroke-linecap:round;stroke-linejoin:round;stroke-miterlimit:3.7;stroke-dasharray:none;stroke-opacity:0.995122"
       id="rect234"
       width="47.19355"
       height="78.064514"
       x="24.377752"
       y="37.526909"
       inkscape:export-filename="water_and_heat_l_working_.svg"
       inkscape:export-xdpi="30.967737"
       inkscape:export-ydpi="30.967737" />
    <rect
       style="fill:#000000;fill-opacity:1;stroke:#000000;stroke-width:4.9;stroke-linecap:round;stroke-linejoin:round;stroke-miterlimit:3.7;stroke-dasharray:none;stroke-opacity:0.995122"
       id="rect234-7"
       width="30.161293"
       height="60.322578"
       x="32.893883"
       y="46.397873" />
    <rect
       style="fill:#000000;fill-opacity:1;stroke:#000000;stroke-width:4.9;stroke-linecap:round;stroke-linejoin:round;stroke-miterlimit:3.7;stroke-dasharray:none;stroke-opacity:0.995122;image-rendering:auto"
       id="rect1106"
       width="8.5161285"
       height="9.5806446"
       x="24.377752"
       y="27.236588" />
    <rect
       style="fill:#000000;fill-opacity:1;stroke:#000000;stroke-width:4.9;stroke-linecap:round;stroke-linejoin:round;stroke-miterlimit:3.7;stroke-dasharray:none;stroke-opacity:0.995122"
       id="rect1106-7"
       width="8.5161285"
       height="9.5806446"
       x="63.055176"
       y="27.236588" />
    <path
       style="display:inline;fill:#ffffff;fill-opacity:0.31;stroke:#000000;stroke-width:4.9;stroke-linecap:round;stroke-linejoin:round;stroke-miterlimit:3.7;stroke-dasharray:none;stroke-opacity:0.995122"
       d="m 40.700334,27.238892 v 9.582214"
       id="path1193"
       inkscape:label="path1193" />
    <path
       style="display:inline;fill:#ffffff;fill-opacity:0.31;stroke:#000000;stroke-width:4.9;stroke-linecap:round;stroke-linejoin:round;stroke-miterlimit:3.7;stroke-dasharray:none;stroke-opacity:0.995122"
       d="m 47.974527,27.238892 v 9.582214"
       id="path1193-1"
       inkscape:label="path1193" />
    <path
       style="display:inline;fill:#ffffff;fill-opacity:0.31;stroke:#000000;stroke-width:4.9;stroke-linecap:round;stroke-linejoin:round;stroke-miterlimit:3.7;stroke-dasharray:none;stroke-opacity:0.995122"
       d="m 55.24872,27.238892 v 9.582214"
       id="path1193-6"
       inkscape:label="path1193" />
    <rect
       style="fill:#000000;fill-opacity:1;stroke:#ffffff;stroke-width:2.7;stroke-linecap:round;stroke-linejoin:round;stroke-miterlimit:3.5;stroke-dasharray:none;stroke-opacity:1"
       id="rect5634"
       width="25.193546"
       height="5.677424"
       x="35.377754"
       y="51.365616"
       ry="2.7726946" />
    <rect
       style="fill:#000000;fill-opacity:1;stroke:#ffffff;stroke-width:2.7;stroke-linecap:round;stroke-linejoin:round;stroke-miterlimit:3.5;stroke-dasharray:none;stroke-opacity:1"
       id="rect5634-5"
       width="25.193546"
       height="5.677424"
       x="35.377754"
       y="63.075294"
       ry="2.7726946" />
    <rect
       style="fill:#000000;fill-opacity:1;stroke:#ffffff;stroke-width:2.7;stroke-linecap:round;stroke-linejoin:round;stroke-miterlimit:3.5;stroke-dasharray:none;stroke-opacity:1"
       id="rect5634-6"
       width="25.193546"
       height="5.677424"
       x="35.377754"
       y="74.784966"
       ry="2.7726946" />
    <rect
       style="fill:#000000;fill-opacity:1;stroke:#ffffff;stroke-width:2.7;stroke-linecap:round;stroke-linejoin:round;stroke-miterlimit:3.5;stroke-dasharray:none;stroke-opacity:1"
       id="rect5634-0"
       width="25.193546"
       height="5.677424"
       x="35.377754"
       y="86.494644"
       ry="2.7726946" />
    <rect
       style="fill:#000000;fill-opacity:1;stroke:#ffffff;stroke-width:2.7;stroke-linecap:round;stroke-linejoin:round;stroke-miterlimit:3.5;stroke-dasharray:none;stroke-opacity:1"
       id="rect5634-9"
       width="25.193546"
       height="5.677424"
       x="35.377754"
       y="98.204323"
       ry="2.7726946" />
    <path
       style="fill:#000000;stroke:#ffffff;stroke-width:0;stroke-linecap:round;stroke-linejoin:round;stroke-miterlimit:3.5"
       d="m 21.927753,114.5152 h 12.342826 l -4.932956,15.25807 h -7.409869"
       id="path1032"
       sodipodi:nodetypes="cccc" />
    <path
       style="fill:#000000;stroke:#ffffff;stroke-width:0;stroke-linecap:round;stroke-linejoin:round;stroke-miterlimit:3.5"
       d="M 74.021302,114.5152 H 61.678476 l 4.932956,15.25807 h 7.409869"
       id="path1032-5"
       sodipodi:nodetypes="cccc" />
    <path
       style="fill:#00ab00;stroke:#000000;stroke-width:4.5;stroke-linecap:round;stroke-linejoin:round;stroke-miterlimit:3.5;stroke-dasharray:none;stroke-opacity:1"
       d="m 71.684206,98.115622 h 8.516127"
       id="path2109" />
    <path
       style="fill:#00ab00;stroke:#000000;stroke-width:4.5;stroke-linecap:butt;stroke-linejoin:round;stroke-miterlimit:3.5;stroke-dasharray:none;stroke-opacity:1"
       d="m 80.200333,98.140882 v 5.265858"
       id="path2109-9" />
    <path
       d="m 30.850063,91.505691 c 2.066869,-0.513149 2.396211,-3.700276 0.428353,-4.583768 -1.856148,-1.095051 -4.261952,0.93906 -3.564372,2.948815 0.346881,1.283662 1.827404,2.065034 3.112922,1.642097 z M 63.261638,98.17233 C 54.089634,91.90457 44.896154,85.567606 35.685101,79.337235 c -4.814685,-2.810286 -11.518429,-1.34363 -14.673723,3.173144 -3.27289,4.300223 -2.706992,10.95381 1.263416,14.632194 2.430258,2.460205 5.97532,3.209917 9.055844,4.583877 8.842824,3.48636 17.662547,6.97985 26.546061,10.35254 4.219252,1.37574 9.032269,-1.70637 9.555193,-6.06646 0.528123,-3.19829 -1.249612,-6.49271 -4.140014,-7.824254 z m -10.389344,8.92947 c 0.242746,0.78477 -1.368333,-0.33546 -1.901423,-0.42351 -5.828195,-2.24385 -11.647567,-4.54099 -17.466935,-6.838114 5.429898,-1.57846 8.909743,-7.662462 7.576449,-13.117587 -0.684303,-1.558683 0.742449,-0.05258 1.39295,0.251643 5.211904,3.52198 10.438077,7.090082 15.680159,10.628037 -4.078883,0.958427 -6.631942,5.541561 -5.311543,9.483251 z M 24.464574,89.585979 c 1.53762,-0.425373 0.380669,-2.039869 -0.439271,-2.646189 -0.468178,-2.004929 1.794026,-1.313642 2.598542,-1.41101 1.523436,-0.471229 -0.224614,-3.01606 1.965691,-2.884241 1.070052,0.352233 1.503249,2.569942 2.806903,1.306825 0.732392,-2.047506 3.527674,-0.205999 2.140823,1.361088 0.06344,2.003654 2.757114,0.08296 3.049648,2.0916 0.05371,1.399727 -2.52925,1.389576 -1.409573,2.965148 2.020572,0.563714 0.609055,3.605322 -1.07319,2.25409 -2.082227,-0.190559 -0.442258,2.413003 -1.997599,2.944722 -1.569631,0.485518 -1.759167,-2.743707 -3.320239,-1.249197 -0.723582,1.99417 -3.527628,0.205921 -2.117744,-1.368291 -0.06345,-2.003663 -2.810369,-0.09172 -3.049653,-2.091608 -0.07188,-0.559182 0.337311,-1.115977 0.868549,-1.280299 z m 35.888424,16.517001 c -3.445777,0.30713 -0.16675,-4.62731 0.868544,-1.28031 0.0877,0.52921 -0.314407,1.1089 -0.868544,1.28031 z"
       id="path791"
       style="fill:#00ab00;fill-opacity:1;stroke-width:0.352778" />
  </g>
</svg>
