<?xml version="1.0" encoding="UTF-8" standalone="no"?>
<!-- Generator: Adobe Illustrator 19.0.0, SVG Export Plug-In . SVG Version: 6.00 Build 0)  -->

<svg
   xmlns:dc="http://purl.org/dc/elements/1.1/"
   xmlns:cc="http://creativecommons.org/ns#"
   xmlns:rdf="http://www.w3.org/1999/02/22-rdf-syntax-ns#"
   xmlns:svg="http://www.w3.org/2000/svg"
   xmlns="http://www.w3.org/2000/svg"
   xmlns:sodipodi="http://sodipodi.sourceforge.net/DTD/sodipodi-0.dtd"
   xmlns:inkscape="http://www.inkscape.org/namespaces/inkscape"
   version="1.1"
   id="Capa_1"
   x="0px"
   y="0px"
   viewBox="0 0 24 24"
   xml:space="preserve"
   sodipodi:docname="002-menu-1.svg"
   width="24"
   height="24"
   inkscape:version="0.92.4 (unknown)"><metadata
   id="metadata98"><rdf:RDF><cc:Work
       rdf:about=""><dc:format>image/svg+xml</dc:format><dc:type
         rdf:resource="http://purl.org/dc/dcmitype/StillImage" /><dc:title /></cc:Work></rdf:RDF></metadata><defs
   id="defs96" /><sodipodi:namedview
   pagecolor="#ffffff"
   bordercolor="#666666"
   borderopacity="1"
   objecttolerance="10"
   gridtolerance="10"
   guidetolerance="10"
   inkscape:pageopacity="0"
   inkscape:pageshadow="2"
   inkscape:window-width="1920"
   inkscape:window-height="960"
   id="namedview94"
   showgrid="false"
   inkscape:zoom="8.0454601"
   inkscape:cx="23.222972"
   inkscape:cy="13.894807"
   inkscape:window-x="0"
   inkscape:window-y="27"
   inkscape:window-maximized="1"
   inkscape:current-layer="Capa_1" />
<g
   id="g61"
   transform="matrix(0.04788378,0,0,0.04788378,0.76328094,0.76328094)">
	<g
   id="g59">
		<g
   id="g57">
			<path
   d="M 53.333,106.667 H 416 c 29.417,0 53.333,-23.927 53.333,-53.333 C 469.333,23.928 445.417,0 416,0 H 53.333 C 23.917,0 0,23.927 0,53.333 c 0,29.406 23.917,53.334 53.333,53.334 z"
   id="path51"
   inkscape:connector-curvature="0" />
			<path
   d="M 416,181.333 H 53.333 C 23.917,181.333 0,205.26 0,234.667 0,264.074 23.917,288 53.333,288 H 416 c 29.417,0 53.333,-23.927 53.333,-53.333 0,-29.406 -23.916,-53.334 -53.333,-53.334 z"
   id="path53"
   inkscape:connector-curvature="0" />
			<path
   d="M 416,362.667 H 53.333 C 23.917,362.667 0,386.594 0,416 c 0,29.406 23.917,53.333 53.333,53.333 H 416 c 29.417,0 53.333,-23.927 53.333,-53.333 0,-29.406 -23.916,-53.333 -53.333,-53.333 z"
   id="path55"
   inkscape:connector-curvature="0" />
		</g>
	</g>
</g>
<g
   id="g63"
   transform="translate(0,-445.33301)">
</g>
<g
   id="g65"
   transform="translate(0,-445.33301)">
</g>
<g
   id="g67"
   transform="translate(0,-445.33301)">
</g>
<g
   id="g69"
   transform="translate(0,-445.33301)">
</g>
<g
   id="g71"
   transform="translate(0,-445.33301)">
</g>
<g
   id="g73"
   transform="translate(0,-445.33301)">
</g>
<g
   id="g75"
   transform="translate(0,-445.33301)">
</g>
<g
   id="g77"
   transform="translate(0,-445.33301)">
</g>
<g
   id="g79"
   transform="translate(0,-445.33301)">
</g>
<g
   id="g81"
   transform="translate(0,-445.33301)">
</g>
<g
   id="g83"
   transform="translate(0,-445.33301)">
</g>
<g
   id="g85"
   transform="translate(0,-445.33301)">
</g>
<g
   id="g87"
   transform="translate(0,-445.33301)">
</g>
<g
   id="g89"
   transform="translate(0,-445.33301)">
</g>
<g
   id="g91"
   transform="translate(0,-445.33301)">
</g>
</svg>