<svg xmlns="http://www.w3.org/2000/svg" width="24" height="24"><g><g><g><path d="M3.32 5.87h17.36c1.4 0 2.56-1.14 2.56-2.55 0-1.4-1.15-2.56-2.56-2.56H3.32C1.92.76.76 1.9.76 3.32c0 1.4 1.15 2.55 2.56 2.55z"/><path d="M20.68 9.45H3.32C1.92 9.45.76 10.6.76 12c0 1.4 1.15 2.55 2.56 2.55h17.36c1.4 0 2.56-1.14 2.56-2.55 0-1.4-1.15-2.55-2.56-2.55z"/><path d="M20.68 18.13H3.32c-1.4 0-2.56 1.14-2.56 2.55 0 1.4 1.15 2.56 2.56 2.56h17.36c1.4 0 2.56-1.15 2.56-2.56 0-1.4-1.15-2.55-2.56-2.55z"/></g></g></g></svg>