<?xml version="1.0" encoding="UTF-8" standalone="no"?>
<!-- Created with Inkscape (http://www.inkscape.org/) -->

<svg
   width="9.5250015mm"
   height="9.5250015mm"
   viewBox="0 0 9.5250015 9.5250015"
   version="1.1"
   id="svg2859"
   xmlns="http://www.w3.org/2000/svg"
   xmlns:svg="http://www.w3.org/2000/svg">
  <defs
     id="defs2856" />
  <g
     id="layer1"
     transform="translate(-38.882661,-83.237501)">
    <g
       id="g3480"
       transform="translate(38.882661,83.025833)">
      <rect
         style="fill:#000000;fill-opacity:1;stroke:#000000;stroke-width:0.393911;stroke-linecap:round;stroke-linejoin:miter;stroke-miterlimit:3.7;stroke-dasharray:none;stroke-opacity:1"
         id="rect244-0-7"
         width="0.10600184"
         height="8.0727549"
         x="1.4669557"
         y="-8.7988777"
         transform="rotate(90)" />
      <rect
         style="fill:#000000;fill-opacity:1;stroke:#000000;stroke-width:0.393911;stroke-linecap:round;stroke-linejoin:miter;stroke-miterlimit:3.7;stroke-dasharray:none;stroke-opacity:1"
         id="rect244-0-7-1"
         width="0.10600184"
         height="8.0727549"
         x="4.5465102"
         y="-8.7988777"
         transform="rotate(90)" />
      <rect
         style="fill:#000000;fill-opacity:1;stroke:#000000;stroke-width:0.393911;stroke-linecap:round;stroke-linejoin:miter;stroke-miterlimit:3.7;stroke-dasharray:none;stroke-opacity:1"
         id="rect244-0-7-8"
         width="0.10600184"
         height="8.0727549"
         x="3.5199919"
         y="-8.7988777"
         transform="rotate(90)" />
      <rect
         style="fill:#000000;fill-opacity:1;stroke:#000000;stroke-width:0.393911;stroke-linecap:round;stroke-linejoin:miter;stroke-miterlimit:3.7;stroke-dasharray:none;stroke-opacity:1"
         id="rect244-0-7-14"
         width="0.10600184"
         height="8.0727549"
         x="2.4934738"
         y="-8.7988777"
         transform="rotate(90)" />
      <rect
         style="fill:#000000;fill-opacity:1;stroke:#000000;stroke-width:0.393911;stroke-linecap:round;stroke-linejoin:miter;stroke-miterlimit:3.7;stroke-dasharray:none;stroke-opacity:1"
         id="rect244-0-7-6"
         width="0.10600184"
         height="8.0727549"
         x="5.5730281"
         y="-8.7988777"
         transform="rotate(90)" />
    </g>
    <rect
       style="fill:#116fff;stroke:#116fff;stroke-width:0.0978215;stroke-linecap:round;stroke-linejoin:round;stroke-miterlimit:3.7"
       id="rect242"
       width="9.3616486"
       height="0.51965988"
       x="38.964336"
       y="83.32235" />
    <rect
       style="fill:#000000;fill-opacity:1;stroke:#000000;stroke-width:0.268688;stroke-linecap:round;stroke-linejoin:miter;stroke-miterlimit:3.7;stroke-dasharray:none;stroke-opacity:1"
       id="rect244"
       width="0.12818734"
       height="8.197978"
       x="39.017006"
       y="84.430176" />
    <rect
       style="fill:none;fill-opacity:1;stroke:#000000;stroke-width:0.268688;stroke-linecap:butt;stroke-linejoin:miter;stroke-miterlimit:3.7;stroke-dasharray:none;stroke-opacity:1"
       id="rect244-0"
       width="0.12818696"
       height="8.197979"
       x="48.14513"
       y="84.430176" />
    <path
       style="fill:#000000;fill-opacity:1;stroke:#000000;stroke-width:0.0972849;stroke-linecap:round;stroke-linejoin:round;stroke-miterlimit:3.7;stroke-opacity:1"
       d="m 38.931304,83.581459 v -0.295317 h 4.713857 4.713858 v 0.295317 0.295315 h -4.713858 -4.713857 z"
       id="path337" />
    <g
       id="g4000"
       transform="translate(-0.74835468,-8.3722153)">
      <rect
         style="fill:#416082;fill-opacity:1;stroke:#821551;stroke-width:0.0234534;stroke-miterlimit:3.5;stroke-dashoffset:0.05;stroke-opacity:0.29918"
         id="rect426"
         width="0.62907559"
         height="3.7744536"
         x="40.559875"
         y="97.348526"
         ry="0.015200903" />
      <rect
         style="fill:#416082;fill-opacity:1;stroke:#821551;stroke-width:0.0234016;stroke-linejoin:round;stroke-miterlimit:3.5;stroke-dasharray:none;stroke-dashoffset:0.05;stroke-opacity:0.29918"
         id="rect1708"
         width="7.7376294"
         height="0.69198316"
         x="40.559875"
         y="99.234657"
         ry="0.015200903" />
      <rect
         style="fill:#416082;fill-opacity:1;stroke:#821551;stroke-width:0.0199651;stroke-linejoin:round;stroke-miterlimit:3.5;stroke-dasharray:none;stroke-dashoffset:0.05;stroke-opacity:0.29918"
         id="rect1710"
         width="0.75832725"
         height="2.1422935"
         x="47.540897"
         y="98.982437"
         ry="0.011014067" />
      <rect
         style="fill:#416082;fill-opacity:1;stroke:#821551;stroke-width:0.0432179;stroke-linejoin:round;stroke-miterlimit:3.5;stroke-dasharray:none;stroke-dashoffset:0.05;stroke-opacity:0.29918"
         id="rect2492"
         width="1.5900705"
         height="1.0313318"
         x="41.596916"
         y="97.82309"
         ry="0.49752757" />
      <path
         d="m 46.265747,97.205823 0.154031,-0.123581 c 0.370451,-0.28785 0.582832,-0.721618 0.582832,-1.190549 0,-0.831143 -0.676177,-1.507358 -1.507358,-1.507358 -0.382805,0 -0.745439,0.142566 -1.025091,0.402215 -0.279652,-0.259649 -0.642329,-0.402215 -1.025133,-0.402215 -0.831143,0 -1.507358,0.676172 -1.507358,1.507358 0,0.468931 0.212382,0.902656 0.58287,1.190592 l 0.153988,0.123538 c 0.170788,0.11957 1.121166,0.880489 0.66934,0.537303 l 1.090328,0.866469 m 1.575557,-2.051791 c -0.0017,0.0013 -0.003,0.0026 -0.0046,0.0039 l -1.53522,1.231735 -1.53513,-1.231744 c -0.0017,-0.0013 -0.003,-0.0026 -0.0046,-0.0039 -0.207838,-0.160869 -0.327048,-0.403616 -0.327048,-0.666069 0,-0.464175 0.377626,-0.841758 0.84176,-0.841758 0.220279,0 0.428542,0.08451 0.586524,0.237988 0.05869,0.05703 0.108632,0.121841 0.148423,0.192675 0.05895,0.104898 0.169916,0.16983 0.290228,0.16983 0.120356,-4.3e-5 0.231282,-0.06497 0.290182,-0.169911 0.03972,-0.07071 0.08965,-0.135514 0.148427,-0.192637 0.157939,-0.153391 0.36616,-0.237945 0.586439,-0.237945 0.464134,0 0.841759,0.377583 0.841759,0.841758 -4.3e-5,0.262453 -0.119252,0.505239 -0.32709,0.666069 z"
         id="path2809"
         style="fill:#416082;fill-opacity:1;stroke:#821551;stroke-width:0.0424679;stroke-opacity:0.29918" />
    </g>
  </g>
</svg>
