<svg xmlns="http://www.w3.org/2000/svg" width="24" height="24" viewBox="0 0 18 18.000124"><path d="M4.3 1C4 .5 3.5.2 2.92.2c-.56.02-1.07.33-1.34.83C1.5 1 1.4 1 1.3 1 .72.97.22 1.45.22 2.06c0 .1 0 .18.03.27.04.13.15.22.28.2h4.63c.13 0 .25-.07.28-.2.03-.1.04-.18.04-.27 0-.3-.13-.6-.36-.8-.22-.2-.52-.3-.83-.27zm-3.5.97c.07-.23.28-.4.52-.4.1 0 .2.04.28.1.1.04.18.05.27 0 .1-.02.15-.1.17-.2.1-.4.5-.68.9-.67.4 0 .77.24.9.62.05.15.2.24.37.2.06-.03.12-.04.18-.04.24 0 .45.16.5.4zm15.8.78c-.28-.5-.8-.8-1.36-.78-.56 0-1.08.32-1.34.8-.1 0-.18-.02-.28-.02-.6 0-1.1.47-1.1 1.07 0 .1 0 .2.03.28.04.12.16.2.3.2h4.62c.13 0 .24-.08.28-.2.02-.1.04-.18.04-.28-.02-.3-.15-.6-.38-.8-.22-.2-.52-.3-.82-.27zm-3.5.98c.07-.24.28-.4.52-.4.1 0 .2.03.3.1.07.04.17.05.26 0 .08-.03.15-.1.17-.2.1-.4.47-.66.88-.67.4-.02.78.23.9.62.06.15.23.24.38.2.07-.03.12-.04.18-.04.24 0 .45.15.5.4zM8.7 2.07c0 .1.02.18.05.27.03.13.15.22.28.2h4.63c.13 0 .25-.07.28-.2.03-.1.04-.18.04-.27 0-.3-.14-.6-.36-.8-.23-.2-.53-.3-.83-.27-.3-.5-.8-.8-1.37-.8-.56.02-1.08.33-1.34.83C10 1 9.9 1 9.8 1c-.6-.02-1.08.46-1.1 1.07zm1.12-.5c.1 0 .2.04.28.1.08.04.18.05.27 0 .08-.02.15-.1.17-.2.1-.38.47-.66.88-.67.4-.02.78.23.92.62.05.15.2.24.36.2.06-.03.12-.04.17-.04.24 0 .46.16.5.4H9.3c.06-.24.27-.4.52-.4zm7.1 5.97h-1.18v-.3h.88c.16 0 .3-.13.3-.3 0-.15-.14-.28-.3-.28h-1.17l-4.98-.28v-.02c0-.16-.14-.3-.3-.3H9l-1.46-.14V5.2c0-.17-.14-.3-.3-.3H6.07c-.16 0-.3.13-.3.3v12.3c0 .16.14.3.3.3h1.17c.16 0 .3-.14.3-.3V9.73L9 9.6h1.17c.16 0 .3-.15.3-.3v-.02L15.45 9h1.17c.16 0 .3-.13.3-.3 0-.15-.14-.3-.3-.3h-.88v-.28h1.17c.17 0 .3-.13.3-.3 0-.15-.13-.28-.3-.28zM6.94 17.2h-.6V5.48h.6zm.6-10.7l1.16.13v2.4l-1.16.12zM9.28 9V6.66h.58V9zm1.17-2.03l4.68.26v1.2l-4.68.26zM12.15 5c-.1-.02-.18-.05-.26-.08-.13-.05-.25-.1-.38-.1-.13-.03-.26-.04-.4-.04-.17 0-.35-.03-.52-.1-.12-.04-.24-.08-.37-.1-.16-.02-.3.08-.33.24-.03.15.07.3.22.33.1.02.18.05.27.08.23.1.48.14.74.14.1 0 .18 0 .27.02.1 0 .2.03.28.06.1.05.24.1.37.1.12.03.25.05.38.04.18 0 .36.03.53.1.12.05.25.08.38.1 0 0 .03 0 .05 0 .14 0 .27-.1.28-.26 0-.15-.1-.3-.24-.3-.1-.03-.18-.05-.26-.1-.12-.04-.24-.07-.37-.1-.12-.02-.25-.03-.38-.02-.1 0-.18 0-.27-.03zm-.27 5.2c-.1.03-.18.03-.27.03-.12 0-.25 0-.37.03-.13.02-.26.06-.37.1-.1.04-.18.07-.27.08-.1.02-.2.03-.28.03-.13 0-.26 0-.38.03-.13.02-.25.05-.37.1-.1.04-.18.06-.27.08-.08.02-.17.02-.27.02-.12 0-.25 0-.38.03-.16.03-.27.18-.24.34.04.16.2.27.35.24.1 0 .18-.02.28 0 .25 0 .5-.06.75-.15.08-.04.17-.06.26-.08.1 0 .18-.02.27-.02.27 0 .53-.04.77-.14.08-.02.17-.05.26-.06.1-.02.18-.03.27-.02.13 0 .26 0 .4-.03.14-.05.25-.2.22-.35-.03-.16-.18-.26-.34-.24zM1.03 5.47c.12-.1.14-.28.05-.4C.98 4.94.8 4.9.68 5c-.27.2-.44.5-.47.83.03.33.2.63.48.8.42.24.9.35 1.37.32.7-.02 1.37-.1 2.04-.27.1-.02.18-.1.2-.2.04-.1 0-.2-.06-.3-.08-.07-.2-.1-.3-.07-.86.23-2.4.43-2.9.06C.9 6.08.8 5.96.8 5.83c.02-.15.1-.28.23-.37zm3.2 5.63c-.85.2-2.4.4-2.9.04-.1-.08-.24-.2-.24-.33.02-.14.1-.27.22-.36.12-.1.14-.28.05-.4-.1-.12-.27-.15-.4-.07-.27.2-.44.5-.47.84.02.34.2.64.47.8.42.25.9.36 1.37.33.7-.02 1.37-.1 2.04-.27.1-.02.2-.1.22-.2.03-.1 0-.2-.07-.3-.07-.07-.18-.1-.3-.07zm.9-2.38c-.87.2-2.43.4-2.93.04-.1-.07-.23-.2-.23-.32.03-.15.1-.3.23-.38.12-.1.14-.27.05-.4-.1-.12-.27-.15-.4-.07-.27.2-.44.5-.47.84.02.32.2.62.47.8.42.24.9.35 1.37.3.7 0 1.37-.1 2.04-.26.1-.02.2-.1.22-.2.02-.1 0-.2-.08-.28-.07-.08-.18-.1-.28-.1zm0 0"/></svg>