<svg xmlns="http://www.w3.org/2000/svg" width="24" height="24"><path d="M5.06 15.96c0 1.27 0 2.55 0 3.83 1.28 0 2.56 0 3.84 0 3.77-3.78 7.53-7.55 11.3-11.3-1.28-1.3-2.55-2.57-3.83-3.85-3.77 3.77-7.54 7.54-11.3 11.3zm18.1-10.44c.7-.67.05-1.5-.52-1.96-.74-.7-1.38-1.5-2.2-2.1-.93-.34-1.45.67-2.06 1.18-.3.3-.6.6-.92.92 1.28 1.28 2.56 2.56 3.84 3.83.62-.63 1.24-1.25 1.87-1.88z"/><path fill="none" d="M0 .27c7.9 0 15.82 0 23.73 0 0 7.9 0 15.82 0 23.73C15.83 24 7.9 24 0 24 0 16.1 0 8.18 0 .27z"/><g stroke="#000" stroke-width=".334" stroke-linecap="round" stroke-linejoin="round"><path d="M.88 4.35c0 6.1 0 12.17 0 18.26 5.9 0 11.77 0 17.66 0 0-6.08 0-12.16 0-18.25-5.9 0-11.77 0-17.66 0zm1.4 1.4c4.95 0 9.9 0 14.87 0 0 5.15 0 10.3 0 15.47-4.96 0-9.92 0-14.88 0 0-5.16 0-10.32 0-15.48z"/></g></svg>