<?xml version="1.0" encoding="UTF-8" standalone="no"?>
<svg
   xmlns:dc="http://purl.org/dc/elements/1.1/"
   xmlns:cc="http://creativecommons.org/ns#"
   xmlns:rdf="http://www.w3.org/1999/02/22-rdf-syntax-ns#"
   xmlns:svg="http://www.w3.org/2000/svg"
   xmlns="http://www.w3.org/2000/svg"
   xmlns:sodipodi="http://sodipodi.sourceforge.net/DTD/sodipodi-0.dtd"
   xmlns:inkscape="http://www.inkscape.org/namespaces/inkscape"
   width="24"
   height="24"
   viewBox="-184 0 18 18.017087"
   version="1.1"
   id="svg4"
   sodipodi:docname="lag_temperature.svg"
   inkscape:version="0.92.4 (unknown)">
  <metadata
     id="metadata10">
    <rdf:RDF>
      <cc:Work
         rdf:about="">
        <dc:format>image/svg+xml</dc:format>
        <dc:type
           rdf:resource="http://purl.org/dc/dcmitype/StillImage" />
      </cc:Work>
    </rdf:RDF>
  </metadata>
  <defs
     id="defs8" />
  <sodipodi:namedview
     pagecolor="#ffffff"
     bordercolor="#666666"
     borderopacity="1"
     objecttolerance="10"
     gridtolerance="10"
     guidetolerance="10"
     inkscape:pageopacity="0"
     inkscape:pageshadow="2"
     inkscape:window-width="765"
     inkscape:window-height="480"
     id="namedview6"
     showgrid="false"
     inkscape:zoom="9.8333333"
     inkscape:cx="12"
     inkscape:cy="12"
     inkscape:window-x="0"
     inkscape:window-y="27"
     inkscape:window-maximized="0"
     inkscape:current-layer="svg4" />
  <path
     d="m -175.38172,0.24365641 c -1.12,0 -2.02,0.89999999 -2.03,2.02999999 v 9.6999996 c -0.86,0.7 -1.28,1.8 -1.12,2.9 0.24,1.75 1.86,2.96 3.6,2.72 1.57,-0.23 2.74,-1.58 2.74,-3.16 0,-0.94 -0.44,-1.85 -1.17,-2.45 V 2.2836564 c 0,-1.12 -0.9,-2.02999999 -2.03,-2.02999999 z m 2.6,14.19999959 c 0,1.42 -1.16,2.6 -2.6,2.6 -1.43,0 -2.6,-1.17 -2.6,-2.6 0,-0.83 0.38,-1.6 1.04,-2.1 0.07,-0.05 0.1,-0.14 0.1,-0.23 v -0.88 h 0.6 v -0.58 h -0.6 V 9.7836564 h 0.6 v -0.56 h -0.6 v -0.87 h 0.6 v -0.58 h -0.6 v -0.87 h 0.6 v -0.58 h -0.6 v -0.87 h 0.6 v -0.58 h -0.6 v -0.87 h 0.6 v -0.58 h -0.6 v -1.15 c 0,-0.8 0.66,-1.44999999 1.46,-1.44999999 0.8,0 1.45,0.64999999 1.45,1.44999999 v 9.8399996 c 0,0.08 0.04,0.17 0.1,0.23 0.67,0.48 1.06,1.26 1.06,2.08 z m -2.3,-1.43 V 2.8436564 h -0.6 V 13.023656 c -0.77,0.15 -1.28,0.9 -1.12,1.7 0.16,0.78 0.93,1.28 1.7,1.12 0.8,-0.16 1.3,-0.92 1.14,-1.7 -0.12,-0.57 -0.56,-1.02 -1.13,-1.13 z m -0.3,2.27 c -0.48,0 -0.87,-0.38 -0.87,-0.86 0,-0.47 0.4,-0.86 0.87,-0.86 0.48,0 0.87,0.4 0.87,0.87 0,0.5 -0.4,0.87 -0.87,0.87 z m 0,0"
     id="path2"
     inkscape:connector-curvature="0" />
</svg>
