<svg xmlns="http://www.w3.org/2000/svg" width="24" height="24" enable-background="new 0 0 64 64"><g><path fill="#fff" d="M15.83 20.02h2.2v3.3h-2.2z"/><path fill="#94c1ff" d="M21.3 17.73l-4.38-2.82-4.37 2.83-.73.47v-1.46l5.1-3.3 5.1 3.3v1.45z"/><path fill="#fff" d="M21.3 17.73v5.58h-3.28v-3.28h-2.2v3.3h-3.27v-5.6l4.37-2.8z"/><path fill="#fff" d="M8.9 10.54c0 .6-.5 1.1-1.1 1.1H3.07c-.6 0-1.1-.5-1.1-1.1v-.36H8.9z"/><path fill="#5c9eff" d="M8.9 11.64c0 .6-.5 1.1-1.1 1.1H3.07c-.6 0-1.1-.5-1.1-1.1v-1.1c0 .6.5 1.1 1.1 1.1H7.8c.6 0 1.1-.5 1.1-1.1z"/><path fill="#fff" d="M8.9 2.52v7.66H1.97v-8.4c0-.6.5-1.1 1.1-1.1H7.8c.6 0 1.1.5 1.1 1.1z"/><path d="M8.9 10.54H1.97c-.2 0-.36-.16-.36-.36 0-.2.17-.37.37-.37H8.9c.2 0 .36.18.36.38s-.15.36-.36.36z"/><path d="M5.63 11.27c-.2 0-.36-.16-.36-.36 0-.2.15-.36.35-.36.2 0 .38.17.38.37 0 .2-.17.37-.37.37z"/><path d="M7.8 12H3.07c-.8 0-1.45-.66-1.45-1.46V1.8C1.6 1 2.27.32 3.07.32H7.8c.82 0 1.46.66 1.46 1.46v8.74c0 .8-.64 1.46-1.45 1.46zM3.07 1.06c-.4 0-.73.33-.73.73v8.74c0 .4.33.73.73.73H7.8c.4 0 .74-.33.74-.73V1.8c0-.4-.33-.74-.73-.74z"/><path d="M7.8 13.1H3.07c-.8 0-1.45-.66-1.45-1.46V2.52c0-.2.17-.37.37-.37.2 0 .36.17.36.37v9.12c0 .4.33.72.73.72H7.8c.4 0 .74-.32.74-.72V2.52c0-.2.16-.37.36-.37.2 0 .36.17.36.37v9.12c0 .8-.64 1.45-1.45 1.45z"/><path d="M11.82 17.1c-.12 0-.24-.06-.3-.17-.12-.16-.07-.4.1-.5l5.1-3.28c.17-.1.4-.06.5.1.12.18.07.4-.1.5l-5.1 3.3c-.07.03-.13.05-.2.05z"/><path d="M22.03 17.1c-.07 0-.14-.02-.2-.06l-5.1-3.28c-.17-.1-.22-.33-.1-.5.1-.17.32-.22.5-.1l5.1 3.27c.16.1.22.34.1.5-.07.1-.18.17-.3.17z"/><path d="M11.82 18.57c-.12 0-.24-.07-.3-.18-.12-.17-.07-.4.1-.5l5.1-3.3c.17-.1.4-.05.5.12.12.17.07.4-.1.5l-5.1 3.28c-.07.04-.13.06-.2.06z"/><path d="M22.03 18.57c-.07 0-.14-.03-.2-.07l-5.1-3.28c-.17-.1-.22-.33-.1-.5.1-.17.32-.22.5-.1l5.1 3.27c.16.1.22.33.1.5-.07.1-.18.16-.3.16z"/><path d="M11.82 18.57c-.2 0-.37-.17-.37-.37v-1.46c0-.2.17-.36.37-.36.2 0 .36.16.36.36v1.46c0 .2-.16.37-.36.37z"/><path d="M22.03 18.57c-.2 0-.36-.17-.36-.37v-1.46c0-.2.16-.36.36-.36.2 0 .36.16.36.36v1.46c0 .2-.17.37-.37.37z"/><path d="M12.55 23.67c-.2 0-.37-.16-.37-.36v-5.57c0-.2.16-.37.37-.37.2 0 .36.17.36.37v5.58c0 .2-.15.37-.35.37z"/><path d="M22.03 23.67h-10.2c-.22 0-.38-.16-.38-.36 0-.2.16-.36.37-.36h10.2c.2 0 .37.17.37.37 0 .2-.17.37-.37.37z"/><path d="M21.3 23.67c-.2 0-.36-.16-.36-.36v-5.57c0-.2.16-.37.36-.37.2 0 .37.17.37.37v5.58c0 .2-.17.37-.37.37z"/><path d="M18.02 23.67h-2.2c-.2 0-.36-.16-.36-.36v-3.28c0-.2.17-.36.37-.36h2.2c.2 0 .35.16.35.36v3.3c0 .2-.16.35-.36.35zm-1.83-.73h1.45V20.4H16.2z"/><path d="M5.62 20.75c-.2 0-.37-.16-.37-.36v-6.2c0-.2.17-.38.37-.38.2 0 .36.17.36.37v6.2c0 .2-.16.35-.36.35z"/><path d="M11.1 20.75H5.6c-.2 0-.37-.16-.37-.36 0-.2.17-.38.37-.38h5.47c.2 0 .35.17.35.37 0 .2-.16.35-.36.35z"/><path d="M10 21.85c-.1 0-.2-.04-.26-.1-.15-.15-.15-.38 0-.52l1.1-1.1c.13-.14.36-.14.5 0 .14.15.15.38 0 .5l-1.1 1.1c-.06.08-.15.12-.25.12z"/><path d="M11.1 20.75c-.1 0-.2-.03-.27-.1l-1.1-1.1c-.14-.14-.14-.37 0-.5.15-.15.38-.16.52 0l1.1 1.08c.14.14.14.38 0 .5-.08.1-.17.12-.26.12z"/><path d="M16.92 12.36c-.2 0-.36-.16-.36-.36V6.16c0-.2.16-.36.36-.36.2 0 .37.16.37.36V12c0 .2-.18.36-.38.36z"/><path d="M16.92 6.53h-6.56c-.2 0-.37-.17-.37-.37 0-.2.15-.36.36-.36h6.56c.2 0 .37.16.37.36 0 .2-.18.37-.38.37z"/><path d="M10.36 6.53c-.1 0-.2-.04-.26-.1-.14-.15-.14-.38 0-.52l1.1-1.1c.14-.13.36-.13.5 0 .15.16.15.4 0 .53l-1.1 1.1c-.06.06-.15.1-.24.1z"/><path d="M11.45 7.62c-.1 0-.2-.03-.25-.1l-1.1-1.1c-.14-.14-.14-.37 0-.5.15-.15.37-.16.5 0L11.7 7c.15.14.15.38 0 .5-.06.1-.16.12-.25.12z"/><path fill="#fff" d="M12.2 17.2v-.25l2.34-1.5c1.3-.84 2.35-1.52 2.37-1.53.02 0 1.1.68 2.4 1.5l2.35 1.53v.26c0 .16 0 .28-.02.28 0 0-1.04-.66-2.3-1.47-2.03-1.3-2.3-1.45-2.4-1.45-.13 0-.4.16-2.42 1.46-1.24.82-2.27 1.48-2.3 1.48 0 0 0-.12 0-.27z"/><path fill="#fff" d="M2.85 12.32c-.14-.05-.3-.2-.4-.3-.02-.07-.05-.13-.05-.14 0 0 .08 0 .17.05.18.07.2.07 2.84.07 2.5 0 2.7 0 2.86-.06.1-.03.2-.05.2-.04.03.03-.14.24-.25.32-.05.04-.15.1-.2.1-.18.05-5 .04-5.15 0z"/></g></svg>