<svg xmlns="http://www.w3.org/2000/svg" width="24" height="24"><path fill="none" d="M.03.03C8 .03 16 .03 23.97.03c0 7.98 0 15.96 0 23.94-7.98 0-15.96 0-23.94 0C.03 16 .03 8 .03.03z"/><path d="M12 4.52C7.26 4.45 2.7 7.58 1.02 12c1.7 4.5 6.4 7.65 11.2 7.48 4.67-.03 9.1-3.13 10.76-7.48-1.7-4.43-6.23-7.55-10.98-7.48zM12 17c-2.85.08-5.34-2.68-4.96-5.5.2-2.85 3.2-5.05 5.97-4.4 2.72.5 4.6 3.5 3.83 6.15-.52 2.15-2.6 3.77-4.83 3.74zm0-8c-1.9-.06-3.44 1.94-2.9 3.75.4 1.9 2.84 2.87 4.45 1.8 1.7-.93 1.94-3.52.46-4.77-.53-.5-1.26-.78-2-.77z"/></svg>