<svg xmlns="http://www.w3.org/2000/svg" width="24" height="24" viewBox="0 0 17.999999 17.999999"><path d="M4.83 5.86c.88.05 1.4-1.17.73-1.76-.6-.66-1.8-.15-1.77.73-.02.55.47 1.04 1.03 1.03zm12 6.6c-2.86-3.6-5.72-7.23-8.6-10.82C6.67-.06 3.84-.3 2.04 1.1.22 2.4-.37 5.1.75 7.04c.66 1.27 1.97 2 3.02 2.92C6.84 12.42 9.9 14.88 13 17.3c1.5 1.06 3.78.43 4.52-1.23.6-1.2.3-2.72-.68-3.6zm-5.2 2.26c0 .34-.5-.3-.7-.4-2.03-1.6-4.05-3.22-6.07-4.84 2.34.04 4.46-1.94 4.6-4.26-.08-.7.3.07.52.27 1.63 2.03 3.26 4.08 4.9 6.12-1.73-.12-3.3 1.38-3.26 3.1zM2.54 4.32c.66.02.4-.76.15-1.1.06-.85.87-.3 1.2-.24.66 0 .28-1.22 1.13-.9.38.27.28 1.2.95.86.54-.72 1.42.35.68.8-.22.8 1.08.37.95 1.2-.15.56-1.17.24-.92 1 .73.47-.2 1.5-.7.76-.8-.33-.47.9-1.15.92-.68 0-.36-1.3-1.16-.9-.53.7-1.42-.35-.67-.8.22-.8-1.1-.38-.95-1.2.04-.23.27-.4.5-.4zm12.17 10.92c-1.4-.3.5-1.85.5-.4-.03.22-.26.4-.5.4z"/></svg>