<svg xmlns="http://www.w3.org/2000/svg" width="24" height="24" viewBox="0 0 23.999999 23.999999"><g><g><path d="M7.54 18.22c-.78-.64-1.88-.95-2.73-.27-.98.44-1.4 1.95-.44 2.64.88.54 2.03.35 3 .2 1.1-.38 1.18-2.04.18-2.58zm-.1 1.4c-.5.75-2.52.94-2.82-.17.16-1.3 2.06-1.36 2.72-.36.13.14.16.35.1.53z"/></g></g><g><g><path d="M10.14 15.57c-1.25-.6-2.35-1.7-3.8-1.8-1.5.16-2.8 1.06-4.16 1.66C.78 16.1.73 17.76.54 19.1c-.15 1.12-.5 2.4.3 3.37.66.94 1.86 1.35 2.97 1.2 1.78-.05 3.57.1 5.33-.1 1.54-.45 2.56-2.1 2.4-3.67-.03-1.3.27-2.82-.76-3.84-.2-.2-.4-.36-.63-.5zm.62 4.9c-.07 1.35-1.35 2.56-2.74 2.4-1.82-.05-3.66.1-5.47-.08-1.43-.4-1.66-2.1-1.26-3.3.2-1.22.08-2.82 1.38-3.45 1.14-.5 2.22-1.18 3.44-1.46 1.3-.1 2.27 1 3.38 1.5 1.42.6 1.32 2.27 1.25 3.54 0 .27 0 .55 0 .82z"/></g></g><g><g><path d="M9.1 17.4c-1.02-.57-1.9-1.62-3.13-1.68-1.17.24-2.24 1-3.12 1.8-.58.9-.6 2.04-.55 3.08.2 1.34 1.78 1.65 2.9 1.5 1.3-.15 2.77.36 3.87-.5 1.05-.77 1.07-2.28.73-3.4-.15-.33-.4-.6-.7-.8zm.1 2.5c-.1 1.2-1.45 1.6-2.47 1.4-1.13-.18-2.7.48-3.52-.52-.3-1.03-.23-2.58.77-3.2.82-.4 1.66-1.44 2.64-.9.9.7 2.28 1.08 2.6 2.25-.02.32 0 .64 0 .96z"/></g></g><g><g><path d="M21 .34c-.58 1.12-1.45 2.48-2.9 2.33-1.04-.14-2.4-.53-2.78-1.6-.16-1.24-1.58-.14-.68.53.93 1.36 2.74 2.1 4.36 1.77 1.33-.3 2.07-1.52 2.67-2.63-.22-.13-.45-.27-.67-.4z"/></g></g><g><g><path d="M22.95.35c-.82 1.42-1.48 3.22-3.2 3.76-1.88.7-3.84-.3-5.4-1.3C13.33 2.4 13.3.6 12.4.5c-.88.37.37 1.47.63 2.08.88 1.2 2.35 1.72 3.68 2.26 1.94.72 4.28.07 5.5-1.62.45-.78 1.34-1.88 1.26-2.58-.17-.1-.34-.2-.5-.3z"/></g></g><g><g><path d="M21.15 20.1c-.44-1.23-.7-2.53-.6-3.84-.08-1.7-1.16-3.1-1.94-4.53-.05-1.17.05-2.34-.04-3.5-.6-.48-1.43-.16-2.14-.24-.52 0-1.04 0-1.57 0-1.04-1.38-2.9-1.72-4.5-1.58-2.13.04-4.27-.1-6.38.08-1.12.35-2.7.65-3.48 1.27.33 1.27 1.9-.3 2.77-.28 1.54-.52 3.2-.2 4.8-.3 1.43.04 2.9-.1 4.32.1.58.13 1.73.6.74 1 .07.8 2.24 1.68.66 2.3C11.5 8.8 8.4 8.1 5.6 8.95 3.84 9.32 2.2 10.1.84 11.22c-.93.18-.06 1.43.44.64C2.63 10.8 4.2 10 5.9 9.7c2.43-.66 5.17-.2 7.17 1.35-.32 1-1.76.8-2.57.48-2.5-.7-5.27-.43-7.45 1-.94.57-1.72 1.37-2.57 2.06-.26.84.88.7 1.14.05 1.54-1.44 3.46-2.6 5.62-2.7 1.1-.07 2.22.1 3.3.4-.65.2-2.9.2-1.73 1.22 1.16.72 2.25 1.52 3.4 2.24.9-.37 2-.9 1.87.62.44 2.22.3 4.67-.9 6.65 1.2.9 1.4-1.43 1.7-2.2.3-1.7.3-3.5-.2-5.17-.77-.9.4-2.16 1.17-2.05.85 2.2 1 4.56 1.36 6.86.36.83.15 2.58.94 2.8.95-.4-.23-1.86-.12-2.7-.42-2.12-.43-4.3-1.17-6.36-.23-.7-1.14-2.34.17-2.22.54.94 1.73.96 2.05 2.03.63 1.12.77 2.42.72 3.68.24 1.98.9 4.02 2.33 5.46 1.04.73 1.06-.86.14-1.07-.63-.5-.83-1.32-1.12-2.03zm-3.34-8.36c-.57-1.02-1.7-1.26-1.97.08-.76 1.4-2.04 2.5-3.47 3.17-.66-.56-2.3-1.33-2.33-1.74 2.1-.35 4.13-1.45 5.4-3.2.06-.63-1.7-1.5-.2-1.28.85-.02 1.72 0 2.58 0 0 .98 0 1.97 0 2.96z"/></g></g><g><g><path d="M23.14 5.28c-2.48 1.16-5.4 1-7.9.02-2.46-.6-4.78-2.1-6.1-4.28-.4-1.34-1.57.1-.45.66 1.43 2.4 4.1 3.84 6.75 4.5 2.56.96 5.5.96 8-.2-.1-.22-.2-.46-.3-.7z"/></g></g><g><g><path d="M21.33 8.87c.7-.43 2.38.45 2.37-.58-.58-.7-2.3-.3-3.16.1-1.17.8-1.06 2.47-.37 3.55.84 1.43 1.9 2.72 2.8 4.1 1.25-.47-.2-1.4-.5-2.08-.77-1.22-1.94-2.34-2.05-3.85 0-.55.4-1.04.9-1.25z"/></g></g><g><g><path d="M6.22 2.68c-.33-.76-.65-1.53-.98-2.3-1.38.26.04 1.57.15 2.35C6 3.7 5 4.7 4 4.47c-1.16.3-2.46-.88-3.4-.54-.36 1.04 1.6.87 2.25 1.27 1.08.08 2.5.27 3.2-.76.35-.52.42-1.2.17-1.76z"/></g></g></svg>