<svg xmlns="http://www.w3.org/2000/svg" width="24" height="24"><g><g><g><path d="M15.32 12.42c1.1-.24 1.22-1.48 1.57-2.36-.03-.65.7-.1.73-.76.2-.4.33-.96-.3-1-2.36-.8-4.73-1.6-7.1-2.4-.44.08-.4.75-.58 1.1.53.22.25.62.1 1.06-.23.8-.8 1.75-.06 2.44.5.6 1 1.2 1.5 1.8-.07.9-1.2.57-1.8.86-.9.07-1.74.6-1.9 1.54-.14.38-.27.77-.4 1.15-.53-.32-.6.44-.74.78-.26.54.54.54.87.7 2.25.76 4.5 1.56 6.75 2.3.32-.27.43-.8.48-1.2-.56-.14-.17-.6-.08-1 .26-.72.67-1.64-.06-2.24-.5-.6-.98-1.2-1.47-1.77.07-.88 1.2-.56 1.8-.86.22-.05.45-.1.67-.15zm-3.16 1.32c.6.76 1.3 1.48 1.85 2.28-.07.68-.4 1.32-.58 1.98-1.88-.64-3.75-1.28-5.62-1.9.27-.65.34-1.4.8-1.92.94-.53 2.33-.26 3.08-1 .12-.45.52-1 .05-1.38-.55-.7-1.18-1.35-1.7-2.08.12-.76.47-1.48.7-2.22 1.86.64 3.73 1.28 5.6 1.9-.24.67-.4 1.36-.7 2-.9.76-2.37.4-3.24 1.1-.1.4-.44.84-.24 1.24z"/><path d="M16.6 20.73c-3.44 2.02-8.13 1.46-10.98-1.32C2.7 16.75 1.84 12.15 3.6 8.6c1.48-3.16 4.86-5.32 8.35-5.3.08.4-.22 1.44.43 1.16.7-.64 1.5-1.2 2.15-1.88.13-.6-.6-.82-.93-1.18-.48-.37-.9-.8-1.42-1.12-.57.1.03 1.12-.38 1.25-4.5 0-8.77 3.08-10.25 7.33C0 13 1.25 18.02 4.63 20.93c3.45 3.17 9 3.72 13 1.25.8-.7-.1-1.97-1.03-1.45z"/><path d="M19.74 7.43c1.06 1.27 2.35-.78 1.1-1.55-.93-1.1-2.32.65-1.18 1.43z"/><path d="M20.87 9.77c-.1 1.16 1.64 1.76 1.9.46.3-1.15-1.34-2.38-1.9-.98-.05.17-.05.36 0 .52z"/><path d="M20.3 18.64c-.88-.74-2.3.73-1.74 1.63.76 1.06 2.4-.36 1.96-1.35.04-.15-.22-.16-.22-.28z"/><path d="M22.24 12.05c-1.15-.02-1.34 2.02-.33 2.37 1.22.32 1.6-1.58.83-2.2-.14-.1-.32-.17-.5-.17z"/><path d="M21.84 15.5c-1.08-.4-1.94 1.47-1.1 2.13 1.12.8 2.27-1.35 1.26-2.04l-.16-.1z"/><path d="M18.8 4.95c.7-1-1.05-2.3-1.86-1.5-.84.88.63 2.15 1.54 1.77.04.2.32-.4.32-.27z"/></g></g></g></svg>