<svg xmlns="http://www.w3.org/2000/svg" width="24" height="24" viewBox="0 0 23.999999 23.999999"><g><g><path d="M23.7 12.8c-1.33-.62-2.55.87-3.9.43-2.15-.2-4.08-1.95-6.32-1.27-1.88.47-3.72 1.76-5.72 1.14-1.77-.46-3.5-1.72-5.4-1.14-.75-.16-2.78.9-1.5 1.38 1.3-.28 2.66-.92 3.95-.26 1.62.58 3.26 1.46 5.02 1.1 1.94-.3 3.7-1.82 5.73-1.24 1.72.45 3.35 1.58 5.2 1.25.88-.24 2.86-.3 2.95-1.4z"/></g></g><g><g><path d="M23.67 17.02c-1.32-.6-2.52.88-3.86.44-2.15-.2-4.08-1.95-6.32-1.28-1.87.46-3.7 1.74-5.7 1.14C6 16.86 4.3 15.65 2.4 16.15c-.7.07-2.48.45-1.78 1.44 1.34-.15 2.7-1 4.04-.35 1.66.57 3.34 1.52 5.16 1.14 1.94-.3 3.7-1.82 5.73-1.24 1.72.45 3.35 1.58 5.2 1.24.86-.22 2.88-.3 2.92-1.38z"/></g></g><g><g><path d="M23.67 21.27c-1.32-.6-2.52.9-3.86.44-2.15-.18-4.1-1.92-6.32-1.25-1.88.47-3.72 1.76-5.72 1.14-1.77-.47-3.5-1.73-5.4-1.15-.75-.16-2.78.9-1.5 1.38 1.3-.28 2.66-.92 3.95-.26 1.62.58 3.26 1.46 5.02 1.1 1.94-.3 3.7-1.82 5.73-1.24 1.72.45 3.35 1.58 5.2 1.25.86-.23 2.94-.28 2.92-1.4z"/></g></g><g><g><path d="M7.32 4.1c-1.14-.82-1.74-2.38-3.2-2.73-1 .92-2.05 1.88-2.9 2.94.47 1.3 1.65-.33 2.13-.88.7-.82.48.42.5.87 0 1.33 0 2.66 0 4 .53 1.14 1.34-.53.95-1.14 0-1.4 0-2.8 0-4.2.8.47 1.76 2.63 2.66 1.5l-.02-.2z"/></g></g><g><g><path d="M15 4.1c-1.14-.82-1.74-2.38-3.2-2.73-1 .9-1.98 1.88-2.9 2.87.36 1.47 1.72-.28 2.17-.9.63-.7.43.45.46.82 0 1.38 0 2.76 0 4.14.5 1.17 1.37-.5.95-1.1 0-1.42 0-2.83 0-4.24.8.47 1.77 2.64 2.67 1.5l-.03-.2z"/></g></g><g><g><path d="M22.7 4.1c-1.15-.82-1.76-2.38-3.23-2.73-1 .9-1.98 1.88-2.9 2.87.25 1.33 1.48.03 1.9-.54.46-.5.9-1 .74-.04 0 1.54 0 3.1 0 4.64.5 1.17 1.4-.48.97-1.1 0-1.42 0-2.83 0-4.24.8.46 1.76 2.63 2.67 1.5l-.03-.2z"/></g></g></svg>