<svg xmlns="http://www.w3.org/2000/svg" width="24" height="24" viewBox="0 0 24.000001 24.000001"><g><path fill="#e2574c" d="M12 .1C6.73 0 1.73 3.9.48 9c-1.23 4.6.6 9.86 4.5 12.62 3.9 2.86 9.52 3.05 13.53.34 3.82-2.46 6-7.2 5.28-11.7-.66-4.63-4.26-8.7-8.82-9.78C14 .23 13 .1 12 .1zm0 21.56c-4.62.1-8.95-3.6-9.56-8.2-.7-4.24 1.8-8.76 5.8-10.38 3.9-1.68 8.84-.43 11.4 3 2.73 3.42 2.7 8.73-.18 12.07-1.8 2.2-4.6 3.54-7.46 3.5zm0-16.34c-1.27-.16-1.74 1.28-1.5 2.3 0 1.9-.03 3.8.03 5.7.57 1.65 3.5.9 2.96-.87-.02-2.07.03-4.14-.03-6.22-.16-.63-.87-.92-1.47-.9zm0 10.4c-1.6-.1-2.05 2.46-.5 2.9 1.28.47 2.57-1.14 1.73-2.24-.27-.4-.74-.68-1.23-.66z"/></g></svg>