<?xml version="1.0" encoding="UTF-8"?>
<svg enable-background="new 0 0 286.054 286.054" version="1.1" viewBox="0 0 286.05 286.05" xml:space="preserve" xmlns="http://www.w3.org/2000/svg" xmlns:cc="http://creativecommons.org/ns#" xmlns:dc="http://purl.org/dc/elements/1.1/" xmlns:rdf="http://www.w3.org/1999/02/22-rdf-syntax-ns#"><metadata><rdf:RDF><cc:Work rdf:about=""><dc:format>image/svg+xml</dc:format><dc:type rdf:resource="http://purl.org/dc/dcmitype/StillImage"/><dc:title/></cc:Work></rdf:RDF></metadata>
<g>
<path d="m143.03 4e-3c-78.987 0-143.03 64.032-143.03 143.02 0 78.996 64.04 143.03 143.03 143.03s143.03-64.031 143.03-143.03c0-78.977-64.04-143.02-143.03-143.02zm0 259.23c-64.183 0-116.21-52.026-116.21-116.21s52.026-116.21 116.21-116.21 116.21 52.026 116.21 116.21-52.026 116.21-116.21 116.21zm57.836-122.8-81.856-45.581c-5.962-3.638-11.827-0.706-11.827 6.526v91.367c0 7.223 5.864 10.173 11.827 6.517l81.722-44.91c7.581-4.318 4.819-11.282 0.134-13.919z"/>
</g>
</svg>
