<svg enable-background="new 0 0 511.448 511.448" viewBox="0 0 24 24" xmlns="http://www.w3.org/2000/svg" >
<path d="m16.02 5.5086c-1.2538-1.5683-2.4503-3.1874-3.5122-4.89-1.2806-0.70479-1.6022 1.3211-2.3256 1.984-2.1311 3.0949-4.9475 5.7948-6.3232 9.3548-1.3704 3.4702-0.061209 7.706 2.948 9.883 3.0203 2.3398 7.5892 2.2848 10.552-0.12708 2.9442-2.2384 4.1509-6.4744 2.7272-9.904-0.91584-2.3496-2.5404-4.3302-4.0667-6.3008z" fill="#2196f3" stroke-width=".045235"/>
<g transform="matrix(.045235 0 0 .045235 .43345 .43231)" fill="#fafafa">
<path d="m207.72 287.45c-34.914 1.559-60.275-40.887-42.197-70.858 15.166-31.186 63.894-33.565 81.986-3.9622 21.909 30.423-2.3169 75.898-39.789 74.82zm0-64c-27.401-0.0403-13.853 44.655 8.9429 29.266 13.071-8.0878 6.425-29.862-8.9429-29.266zm96 224c-34.914 1.559-60.275-40.887-42.197-70.858 15.166-31.186 63.894-33.565 81.986-3.9622 21.909 30.423-2.3169 75.898-39.789 74.82zm0-64c-27.389-0.0217-13.841 44.632 8.9297 29.258 13.093-8.0903 6.4179-29.817-8.9297-29.258zm-128 32c-19.684-0.38049-19.416-25.651-4.9887-33.631 52.131-51.826 103.68-104.29 156.18-155.72 18.297-12.357 34.977 17.813 16.495 28.295-53.032 52.727-105.48 106.09-158.88 158.42-2.5924 1.716-5.6962 2.637-8.8031 2.6325z"/>
</g>
</svg>

