<?xml version="1.0" encoding="UTF-8" standalone="no"?>
<svg
   xmlns:dc="http://purl.org/dc/elements/1.1/"
   xmlns:cc="http://creativecommons.org/ns#"
   xmlns:rdf="http://www.w3.org/1999/02/22-rdf-syntax-ns#"
   xmlns:svg="http://www.w3.org/2000/svg"
   xmlns="http://www.w3.org/2000/svg"
   xmlns:sodipodi="http://sodipodi.sourceforge.net/DTD/sodipodi-0.dtd"
   xmlns:inkscape="http://www.inkscape.org/namespaces/inkscape"
   width="24"
   height="24"
   enable-background="new 0 0 64 64"
   viewBox="0 0 24 24"
   version="1.1"
   id="svg60"
   sodipodi:docname="lag_connected_nok.svg"
   inkscape:version="0.92.4 (unknown)">
  <metadata
     id="metadata66">
    <rdf:RDF>
      <cc:Work
         rdf:about="">
        <dc:format>image/svg+xml</dc:format>
        <dc:type
           rdf:resource="http://purl.org/dc/dcmitype/StillImage" />
        <dc:title></dc:title>
      </cc:Work>
    </rdf:RDF>
  </metadata>
  <defs
     id="defs64" />
  <sodipodi:namedview
     pagecolor="#ffffff"
     bordercolor="#666666"
     borderopacity="1"
     objecttolerance="10"
     gridtolerance="10"
     guidetolerance="10"
     inkscape:pageopacity="0"
     inkscape:pageshadow="2"
     inkscape:window-width="1920"
     inkscape:window-height="960"
     id="namedview62"
     showgrid="false"
     inkscape:zoom="29.5"
     inkscape:cx="18.138762"
     inkscape:cy="12.313898"
     inkscape:window-x="0"
     inkscape:window-y="27"
     inkscape:window-maximized="1"
     inkscape:current-layer="svg60" />
  <g
     id="g145">
    <path
       style="fill:#ffffff;stroke-width:0.36472979"
       inkscape:connector-curvature="0"
       id="path2"
       d="m 15.829662,20.024054 h 2.188379 v 3.282569 h -2.188379 z" />
    <path
       style="fill:#94c1ff;stroke-width:0.36472979"
       inkscape:connector-curvature="0"
       id="path4"
       d="m 21.300608,17.726257 -4.376757,-2.815714 -4.376757,2.815714 -0.729459,0.474149 v -1.45892 l 5.106216,-3.289862 5.106217,3.282568 v 1.458919 z" />
    <path
       style="fill:#ffffff;stroke-width:0.36472979"
       inkscape:connector-curvature="0"
       id="path6"
       d="m 21.300608,17.726257 v 5.580366 h -3.282567 v -3.282569 h -2.188379 v 3.282569 h -3.282568 v -5.580366 l 4.376757,-2.815714 z" />
    <path
       style="fill:#ffffff;stroke-width:0.36472979"
       inkscape:connector-curvature="0"
       id="path8"
       d="m 8.8997968,10.541081 c 0,0.601804 -0.4850907,1.094189 -1.0941894,1.094189 h -4.741487 c -0.6018041,0 -1.0941893,-0.492385 -1.0941893,-1.094189 v -0.36473 h 6.9298657 z" />
    <path
       style="fill:#5c9eff;stroke-width:0.36472979"
       inkscape:connector-curvature="0"
       id="path10"
       d="m 8.8997968,11.63527 c 0,0.601804 -0.4850907,1.09419 -1.0941894,1.09419 h -4.741487 c -0.6018041,0 -1.0941893,-0.492386 -1.0941893,-1.09419 v -1.094189 c 0,0.601804 0.4923852,1.094189 1.0941893,1.094189 h 4.741487 c 0.6090987,0 1.0941894,-0.492385 1.0941894,-1.094189 z" />
    <path
       style="fill:#ffffff;stroke-width:0.36472979"
       inkscape:connector-curvature="0"
       id="path12"
       d="M 8.8997968,2.5170252 V 10.176351 H 1.9699311 V 1.7875658 c 0,-0.6018043 0.4923852,-1.09418908 1.0941893,-1.09418908 h 4.741487 c 0.6090987,0 1.0941894,0.49238478 1.0941894,1.09418908 z" />
    <path
       d="M 8.8997969,10.541081 H 1.969931 c -0.2006013,0 -0.3647297,-0.160481 -0.3647297,-0.36473 0,-0.2042486 0.1641284,-0.3647297 0.3647297,-0.3647297 h 6.9298659 c 0.2078959,0 0.3647298,0.1641284 0.3647298,0.3647297 0,0.200601 -0.1568339,0.36473 -0.3647298,0.36473 z"
       id="path14"
       inkscape:connector-curvature="0"
       style="fill:#000000;stroke-width:0.36472979" />
    <path
       d="m 5.631818,11.27054 c -0.2042486,0 -0.3647297,-0.164128 -0.3647297,-0.364729 0,-0.200602 0.1568338,-0.36473 0.3574351,-0.36473 h 0.00729 c 0.2006014,0 0.3647298,0.164128 0.3647298,0.36473 0,0.200601 -0.1641284,0.364729 -0.3647298,0.364729 z"
       id="path16"
       inkscape:connector-curvature="0"
       style="fill:#000000;stroke-width:0.36472979" />
    <path
       d="M 7.8056075,12 H 3.0641204 C 2.2617149,12 1.6052013,11.343486 1.6052013,10.541081 V 1.7875662 c 0,-0.80240556 0.6565136,-1.45891916 1.4589191,-1.45891916 h 4.7414871 c 0.8097001,0 1.4589192,0.6565136 1.4589192,1.45891916 V 10.541081 C 9.2645267,11.343486 8.6153076,12 7.8056075,12 Z M 3.0641204,1.0581066 c -0.4012028,0 -0.7294596,0.3282568 -0.7294596,0.7294596 v 8.7535148 c 0,0.401203 0.3282568,0.729459 0.7294596,0.729459 h 4.7414871 c 0.4084974,0 0.7294596,-0.328256 0.7294596,-0.729459 V 1.7875662 c 0,-0.4012028 -0.3209622,-0.7294596 -0.7294596,-0.7294596 z"
       id="path18"
       inkscape:connector-curvature="0"
       style="fill:#000000;stroke-width:0.36472979" />
    <path
       d="M 7.8056075,13.094189 H 3.0641204 c -0.8024055,0 -1.4589191,-0.656513 -1.4589191,-1.458919 V 2.5170257 c 0,-0.2006014 0.1641284,-0.3647298 0.3647297,-0.3647298 0.2006014,0 0.3647298,0.1641284 0.3647298,0.3647298 V 11.63527 c 0,0.401203 0.3282568,0.72946 0.7294596,0.72946 h 4.7414871 c 0.4084974,0 0.7294596,-0.328257 0.7294596,-0.72946 V 2.5170257 c 0,-0.2006014 0.1677757,-0.3647298 0.3647298,-0.3647298 0.1969541,0 0.3647298,0.1641284 0.3647298,0.3647298 V 11.63527 c 0,0.802406 -0.6492191,1.458919 -1.4589192,1.458919 z"
       id="path20"
       inkscape:connector-curvature="0"
       style="fill:#000000;stroke-width:0.36472979" />
    <path
       d="m 11.817635,17.106217 c -0.120361,0 -0.237074,-0.062 -0.306373,-0.171423 -0.109419,-0.167776 -0.062,-0.393908 0.109419,-0.503327 l 5.106217,-3.282568 c 0.167776,-0.109419 0.393908,-0.062 0.503327,0.109419 0.109419,0.167775 0.05836,0.393908 -0.109419,0.503327 l -5.106217,3.282568 c -0.062,0.03647 -0.127655,0.05836 -0.196954,0.05836 z"
       id="path22"
       inkscape:connector-curvature="0"
       style="fill:#000000;stroke-width:0.36472979" />
    <path
       d="m 22.030069,17.106217 c -0.07295,0 -0.138597,-0.02188 -0.196954,-0.062 l -5.106217,-3.282568 c -0.171423,-0.109419 -0.218838,-0.335552 -0.109419,-0.503327 0.109419,-0.171423 0.328257,-0.218838 0.503327,-0.109419 l 5.106217,3.282568 c 0.167776,0.109419 0.218838,0.335551 0.109419,0.503327 -0.07295,0.109419 -0.182365,0.167776 -0.306373,0.167776 z"
       id="path24"
       inkscape:connector-curvature="0"
       style="fill:#000000;stroke-width:0.36472979" />
    <path
       d="m 11.817635,18.565136 c -0.120361,0 -0.237074,-0.062 -0.306373,-0.171423 -0.109419,-0.167776 -0.062,-0.393908 0.109419,-0.503327 l 5.106217,-3.282568 c 0.167776,-0.109419 0.393908,-0.062 0.503327,0.109419 0.109419,0.167776 0.05836,0.393908 -0.109419,0.503327 l -5.106217,3.282568 c -0.062,0.03647 -0.127655,0.05836 -0.196954,0.05836 z"
       id="path26"
       inkscape:connector-curvature="0"
       style="fill:#000000;stroke-width:0.36472979" />
    <path
       d="m 22.030069,18.565136 c -0.07295,0 -0.138597,-0.02188 -0.196954,-0.062 l -5.106217,-3.282568 c -0.171423,-0.109419 -0.218838,-0.335551 -0.109419,-0.503327 0.109419,-0.171423 0.328257,-0.218838 0.503327,-0.109419 l 5.106217,3.282568 c 0.167776,0.109419 0.218838,0.335551 0.109419,0.503327 -0.07295,0.109419 -0.182365,0.167776 -0.306373,0.167776 z"
       id="path28"
       inkscape:connector-curvature="0"
       style="fill:#000000;stroke-width:0.36472979" />
    <path
       d="m 11.817635,18.565136 c -0.200601,0 -0.36473,-0.167776 -0.36473,-0.36473 v -1.458919 c 0,-0.204249 0.164129,-0.36473 0.36473,-0.36473 0.200601,0 0.36473,0.160481 0.36473,0.36473 v 1.458919 c 0,0.196954 -0.164129,0.36473 -0.36473,0.36473 z"
       id="path30"
       inkscape:connector-curvature="0"
       style="fill:#000000;stroke-width:0.36472979" />
    <path
       d="m 22.030069,18.565136 c -0.204249,0 -0.36473,-0.167776 -0.36473,-0.36473 v -1.458919 c 0,-0.204249 0.160481,-0.36473 0.36473,-0.36473 0.204249,0 0.36473,0.160481 0.36473,0.36473 v 1.458919 c 0,0.196954 -0.164129,0.36473 -0.36473,0.36473 z"
       id="path32"
       inkscape:connector-curvature="0"
       style="fill:#000000;stroke-width:0.36472979" />
    <path
       d="m 12.547095,23.671353 c -0.204249,0 -0.36473,-0.164128 -0.36473,-0.36473 v -5.580365 c 0,-0.200602 0.160481,-0.36473 0.36473,-0.36473 0.204248,0 0.364729,0.164128 0.364729,0.36473 v 5.580365 c 0,0.200602 -0.164128,0.36473 -0.364729,0.36473 z"
       id="path34"
       inkscape:connector-curvature="0"
       style="fill:#000000;stroke-width:0.36472979" />
    <path
       d="M 22.030069,23.671353 H 11.817635 c -0.204249,0 -0.36473,-0.164128 -0.36473,-0.36473 0,-0.200601 0.160481,-0.36473 0.36473,-0.36473 h 10.212434 c 0.200601,0 0.36473,0.164129 0.36473,0.36473 0,0.200602 -0.164129,0.36473 -0.36473,0.36473 z"
       id="path36"
       inkscape:connector-curvature="0"
       style="fill:#000000;stroke-width:0.36472979" />
    <path
       d="m 21.300609,23.671353 c -0.204248,0 -0.364729,-0.164128 -0.364729,-0.36473 v -5.580365 c 0,-0.200602 0.160481,-0.36473 0.364729,-0.36473 0.204249,0 0.36473,0.164128 0.36473,0.36473 v 5.580365 c 0,0.200602 -0.164128,0.36473 -0.36473,0.36473 z"
       id="path38"
       inkscape:connector-curvature="0"
       style="fill:#000000;stroke-width:0.36472979" />
    <path
       d="m 18.018041,23.671353 h -2.188378 c -0.204249,0 -0.36473,-0.164128 -0.36473,-0.36473 v -3.282568 c 0,-0.204249 0.160481,-0.36473 0.36473,-0.36473 h 2.188378 c 0.200602,0 0.36473,0.160481 0.36473,0.36473 v 3.282568 c 0,0.200602 -0.164128,0.36473 -0.36473,0.36473 z m -1.823649,-0.72946 h 1.45892 v -2.553108 h -1.45892 z"
       id="path40"
       inkscape:connector-curvature="0"
       style="fill:#000000;stroke-width:0.36472979" />
    <path
       d="m 5.6172288,20.753515 c -0.2006013,0 -0.3647297,-0.164129 -0.3647297,-0.36473 v -6.200406 c 0,-0.200602 0.1641284,-0.36473 0.3647297,-0.36473 0.2006014,0 0.3647298,0.164128 0.3647298,0.36473 v 6.200406 c 0,0.200601 -0.1604811,0.36473 -0.3647298,0.36473 z"
       id="path42"
       inkscape:connector-curvature="0"
       style="fill:#000000;stroke-width:0.36472979" />
    <path
       d="M 11.088176,20.753515 H 5.6172288 c -0.2006013,0 -0.3647297,-0.164129 -0.3647297,-0.36473 0,-0.200601 0.1641284,-0.36473 0.3647297,-0.36473 h 5.4709472 c 0.200601,0 0.364729,0.164129 0.364729,0.36473 0,0.200601 -0.164128,0.36473 -0.364729,0.36473 z"
       id="path44"
       inkscape:connector-curvature="0"
       style="fill:#000000;stroke-width:0.36472979" />
    <path
       d="m 9.9939862,21.847704 c -0.091182,0 -0.1823649,-0.03647 -0.2553108,-0.109419 -0.1458919,-0.138597 -0.1458919,-0.372024 0,-0.510622 l 1.0941896,-1.094189 c 0.138597,-0.145892 0.372024,-0.145892 0.510621,0 0.138598,0.145892 0.145892,0.372024 0,0.510622 l -1.094189,1.094189 c -0.07295,0.07295 -0.160481,0.109419 -0.2553108,0.109419 z"
       id="path46"
       inkscape:connector-curvature="0"
       style="fill:#000000;stroke-width:0.36472979" />
    <path
       d="m 11.088176,20.753515 c -0.09118,0 -0.182365,-0.03647 -0.255311,-0.109419 l -1.0941896,-1.09419 c -0.1458919,-0.138597 -0.1458919,-0.372024 0,-0.510621 0.1458919,-0.138598 0.3720246,-0.145892 0.5106216,0 l 1.094189,1.094189 c 0.145892,0.138597 0.145892,0.372024 0,0.510622 -0.07295,0.07295 -0.160481,0.109419 -0.25531,0.109419 z"
       id="path48"
       inkscape:connector-curvature="0"
       style="fill:#000000;stroke-width:0.36472979" />
    <path
       d="m 16.923852,12.36473 c -0.204249,0 -0.36473,-0.164129 -0.36473,-0.36473 V 6.1643235 c 0,-0.2006014 0.160481,-0.3647298 0.36473,-0.3647298 0.204249,0 0.36473,0.1641284 0.36473,0.3647298 V 12 c 0,0.200601 -0.164129,0.36473 -0.36473,0.36473 z"
       id="path50"
       inkscape:connector-curvature="0"
       style="fill:#000000;stroke-width:0.36472979" />
    <path
       d="m 16.923852,6.5290533 h -6.565136 c -0.204249,0 -0.3647298,-0.1641284 -0.3647298,-0.3647298 0,-0.2006014 0.1604808,-0.3647298 0.3647298,-0.3647298 h 6.565136 c 0.200601,0 0.36473,0.1641284 0.36473,0.3647298 0,0.2006014 -0.164129,0.3647298 -0.36473,0.3647298 z"
       id="path52"
       inkscape:connector-curvature="0"
       style="fill:#000000;stroke-width:0.36472979" />
    <path
       d="m 10.358716,6.5290533 c -0.09483,0 -0.189659,-0.036473 -0.255311,-0.1094189 -0.1458918,-0.1385974 -0.1458918,-0.3720244 0,-0.5106217 l 1.094189,-1.0941894 c 0.138598,-0.1458919 0.36473,-0.1458919 0.510622,0 0.145892,0.1458919 0.145892,0.3720244 0,0.5106217 l -1.094189,1.0941894 c -0.07295,0.072946 -0.164129,0.1094189 -0.255311,0.1094189 z"
       id="path54"
       inkscape:connector-curvature="0"
       style="fill:#000000;stroke-width:0.36472979" />
    <path
       d="m 11.452905,7.6232426 c -0.09483,0 -0.189659,-0.036473 -0.255311,-0.1094189 L 10.103405,6.4196344 c -0.1458918,-0.1385974 -0.1458918,-0.3720244 0,-0.5106217 0.145892,-0.1385973 0.36473,-0.1458919 0.510622,0 l 1.094189,1.0941893 c 0.145892,0.1385973 0.145892,0.3720244 0,0.5106217 -0.07295,0.072946 -0.164128,0.1094189 -0.255311,0.1094189 z"
       id="path56"
       inkscape:connector-curvature="0"
       style="fill:#000000;stroke-width:0.36472979" />
    <path
       inkscape:connector-curvature="0"
       id="path109"
       d="m 12.193014,17.213221 1.4e-5,-0.262712 2.344608,-1.508475 c 1.289534,-0.829661 2.355966,-1.513106 2.369849,-1.518768 0.01388,-0.0057 1.086769,0.671965 2.384192,1.505837 l 2.358949,1.516132 v 0.265349 c 0,0.145941 -0.0085,0.265349 -0.01888,0.265349 -0.01039,0 -1.043861,-0.659414 -2.29661,-1.465364 -2.037844,-1.311036 -2.292006,-1.465312 -2.413319,-1.464876 -0.120651,4.32e-4 -0.386364,0.161913 -2.411226,1.465363 -1.251598,0.805682 -2.285073,1.464877 -2.29661,1.464877 -0.01154,0 -0.02097,-0.118221 -0.02096,-0.262712 z"
       style="fill:#ffffff;stroke-width:0.03389831" />
    <path
       inkscape:connector-curvature="0"
       id="path111"
       d="M 2.8540158,12.316388 C 2.7089257,12.265672 2.5368346,12.129572 2.461426,12.005904 2.425795,11.947474 2.396585,11.889686 2.396515,11.877494 c -6.97e-5,-0.01219 0.079958,0.01069 0.1778394,0.05085 0.1770102,0.07262 0.1922595,0.07301 2.8389831,0.07301 2.4762851,0 2.6736312,-0.0043 2.8427214,-0.06123 0.099938,-0.03368 0.1898498,-0.05309 0.1998054,-0.04313 0.030586,0.03059 -0.1318888,0.241812 -0.2463061,0.320212 -0.059509,0.04078 -0.1599366,0.08898 -0.2231722,0.107112 -0.1622272,0.04653 -4.9979579,0.03906 -5.1323706,-0.0079 z"
       style="fill:#ffffff;stroke-width:0.03389831" />
  </g>
</svg>
