<svg xmlns="http://www.w3.org/2000/svg" width="512" height="512"><path fill="none" d="M0-2.13h514.13V512H0z"/><path fill-opacity=".455" d="M257.07 94.27c-107.1 0-198.6 66.62-235.65 160.66C58.48 348.98 149.96 415.6 257.07 415.6c107.1 0 198.58-66.62 235.64-160.67C455.66 160.9 364.2 94.27 257.08 94.27zm0 267.77c-59.13 0-107.1-47.98-107.1-107.1 0-59.13 47.97-107.12 107.1-107.12 59.12 0 107.1 48 107.1 107.1 0 59.14-47.98 107.12-107.1 107.12zm0-171.37c-35.56 0-64.27 28.7-64.27 64.26s28.7 64.27 64.27 64.27c35.56 0 64.26-28.7 64.26-64.27 0-35.56-28.7-64.26-64.26-64.26z"/></svg>