<svg xmlns="http://www.w3.org/2000/svg" width="24" height="24"><path d="M14.9 7.63c-2.03.02-4.07-.04-6.1.03-.9.15-1.28 1.08-1.17 1.9.02 1.87-.04 3.76.03 5.65.15.9 1.08 1.28 1.9 1.17 1.87-.02 3.76.04 5.65-.03.9-.15 1.28-1.08 1.17-1.9-.02-1.87.04-3.76-.03-5.65-.12-.67-.75-1.18-1.43-1.17zM12 .33C7.42.3 3 3.24 1.26 7.47c-1.8 4.16-.88 9.34 2.3 12.58 3.06 3.3 8.1 4.5 12.3 2.96 4.4-1.5 7.6-5.78 7.78-10.4.3-4.5-2.3-8.98-6.33-10.98C15.68.78 13.85.34 12 .34zm0 20.4c-4.04.1-7.82-3-8.57-6.97-.85-3.8 1.23-8 4.78-9.64 3.5-1.76 8.1-.75 10.55 2.32 2.6 3.03 2.65 7.86.13 10.96-1.63 2.1-4.23 3.36-6.88 3.34z"/></svg>