<svg xmlns="http://www.w3.org/2000/svg" width="24" height="24" viewBox="0 0 24.000001 24.000001"><g><path fill="#ffca00" stroke="#000" stroke-width=".044" d="M23.1 20.1c-3.27-5.97-6.53-11.96-9.8-17.92-.7-1.07-2.43-.74-2.84.4C7.26 8.5 4 14.4.8 20.3c-.48 1.1.6 2.38 1.76 2.18 6.45 0 12.9.02 19.35 0 1.1-.1 1.8-1.47 1.2-2.38zm-9.5-1.25c-.1.64-.88.33-1.33.4-.6-.04-1.22.1-1.77-.1-.2-.62-.05-1.32-.1-1.97 0-.46-.13-1.26.6-1.13.78 0 1.57-.03 2.36.02.42.3.17.92.24 1.37 0 .47 0 .94 0 1.4zm0-4.72c-.25.5-.9.24-1.37.3-.56-.04-1.17.1-1.7-.1-.26-.33-.1-.84-.17-1.25-.06-1.57-.12-3.14-.18-4.7.15-.63.9-.36 1.36-.42.66.02 1.35-.05 2 .04.5.25.2.88.25 1.33-.07 1.6-.14 3.2-.2 4.8z"/></g></svg>