<?xml version="1.0" encoding="UTF-8" standalone="no"?>
<svg
   xmlns:dc="http://purl.org/dc/elements/1.1/"
   xmlns:cc="http://creativecommons.org/ns#"
   xmlns:rdf="http://www.w3.org/1999/02/22-rdf-syntax-ns#"
   xmlns:svg="http://www.w3.org/2000/svg"
   xmlns="http://www.w3.org/2000/svg"
   xmlns:sodipodi="http://sodipodi.sourceforge.net/DTD/sodipodi-0.dtd"
   xmlns:inkscape="http://www.inkscape.org/namespaces/inkscape"
   width="24"
   height="24"
   enable-background="new 0 0 64 64"
   viewBox="0 0 24 24"
   version="1.1"
   id="svg60"
   sodipodi:docname="lag_connected_ok.svg"
   inkscape:version="0.92.4 (unknown)">
  <metadata
     id="metadata66">
    <rdf:RDF>
      <cc:Work
         rdf:about="">
        <dc:format>image/svg+xml</dc:format>
        <dc:type
           rdf:resource="http://purl.org/dc/dcmitype/StillImage" />
        <dc:title></dc:title>
      </cc:Work>
    </rdf:RDF>
  </metadata>
  <defs
     id="defs64" />
  <sodipodi:namedview
     pagecolor="#ffffff"
     bordercolor="#666666"
     borderopacity="1"
     objecttolerance="10"
     gridtolerance="10"
     guidetolerance="10"
     inkscape:pageopacity="0"
     inkscape:pageshadow="2"
     inkscape:window-width="1920"
     inkscape:window-height="960"
     id="namedview62"
     showgrid="false"
     inkscape:zoom="29.5"
     inkscape:cx="18.138762"
     inkscape:cy="12.313898"
     inkscape:window-x="0"
     inkscape:window-y="27"
     inkscape:window-maximized="1"
     inkscape:current-layer="svg60" />
  <path
     d="m 15.829662,20.024054 h 2.188379 v 3.282569 h -2.188379 z"
     id="path2"
     inkscape:connector-curvature="0"
     style="fill:#94c1ff;stroke-width:0.36472979" />
  <path
     d="m 21.300608,17.726257 -4.376757,-2.815714 -4.376757,2.815714 -0.729459,0.474149 v -1.45892 l 5.106216,-3.289862 5.106217,3.282568 v 1.458919 z"
     id="path4"
     inkscape:connector-curvature="0"
     style="fill:#94c1ff;stroke-width:0.36472979" />
  <path
     d="m 21.300608,17.726257 v 5.580366 h -3.282567 v -3.282569 h -2.188379 v 3.282569 h -3.282568 v -5.580366 l 4.376757,-2.815714 z"
     id="path6"
     inkscape:connector-curvature="0"
     style="fill:#ffffff;stroke-width:0.36472979" />
  <path
     d="m 8.8997968,10.541081 c 0,0.601804 -0.4850907,1.094189 -1.0941894,1.094189 h -4.741487 c -0.6018041,0 -1.0941893,-0.492385 -1.0941893,-1.094189 v -0.36473 h 6.9298657 z"
     id="path8"
     inkscape:connector-curvature="0"
     style="fill:#94c1ff;stroke-width:0.36472979" />
  <path
     d="m 8.8997968,11.63527 c 0,0.601804 -0.4850907,1.09419 -1.0941894,1.09419 h -4.741487 c -0.6018041,0 -1.0941893,-0.492386 -1.0941893,-1.09419 v -1.094189 c 0,0.601804 0.4923852,1.094189 1.0941893,1.094189 h 4.741487 c 0.6090987,0 1.0941894,-0.492385 1.0941894,-1.094189 z"
     id="path10"
     inkscape:connector-curvature="0"
     style="fill:#5c9eff;stroke-width:0.36472979" />
  <path
     d="M 8.8997968,2.5170252 V 10.176351 H 1.9699311 V 1.7875658 c 0,-0.6018043 0.4923852,-1.09418908 1.0941893,-1.09418908 h 4.741487 c 0.6090987,0 1.0941894,0.49238478 1.0941894,1.09418908 z"
     id="path12"
     inkscape:connector-curvature="0"
     style="fill:#d7e9ff;stroke-width:0.36472979" />
  <g
     id="g58"
     style="fill:#116fff"
     transform="matrix(0.36472978,0,0,0.36472978,0.32864704,0.32864704)">
    <path
       d="m 23.5,28 h -19 c -0.55,0 -1,-0.44 -1,-1 0,-0.56 0.45,-1 1,-1 h 19 c 0.57,0 1,0.45 1,1 0,0.55 -0.43,1 -1,1 z"
       id="path14"
       inkscape:connector-curvature="0" />
    <path
       d="m 14.54,30 c -0.56,0 -1,-0.45 -1,-1 0,-0.55 0.43,-1 0.98,-1 h 0.02 c 0.55,0 1,0.45 1,1 0,0.55 -0.45,1 -1,1 z"
       id="path16"
       inkscape:connector-curvature="0" />
    <path
       d="m 20.5,32 h -13 c -2.2,0 -4,-1.8 -4,-4 V 4 c 0,-2.2 1.8,-4 4,-4 h 13 c 2.22,0 4,1.8 4,4 v 24 c 0,2.2 -1.78,4 -4,4 z M 7.5,2 c -1.1,0 -2,0.9 -2,2 v 24 c 0,1.1 0.9,2 2,2 h 13 c 1.12,0 2,-0.9 2,-2 V 4 c 0,-1.1 -0.88,-2 -2,-2 z"
       id="path18"
       inkscape:connector-curvature="0" />
    <path
       d="m 20.5,35 h -13 c -2.2,0 -4,-1.8 -4,-4 V 6 c 0,-0.55 0.45,-1 1,-1 0.55,0 1,0.45 1,1 v 25 c 0,1.1 0.9,2 2,2 h 13 c 1.12,0 2,-0.9 2,-2 V 6 c 0,-0.55 0.46,-1 1,-1 0.54,0 1,0.45 1,1 v 25 c 0,2.2 -1.78,4 -4,4 z"
       id="path20"
       inkscape:connector-curvature="0" />
    <path
       d="m 31.5,46 c -0.33,0 -0.65,-0.17 -0.84,-0.47 -0.3,-0.46 -0.17,-1.08 0.3,-1.38 l 14,-9 c 0.46,-0.3 1.08,-0.17 1.38,0.3 0.3,0.46 0.16,1.08 -0.3,1.38 l -14,9 c -0.17,0.1 -0.35,0.16 -0.54,0.16 z"
       id="path22"
       inkscape:connector-curvature="0" />
    <path
       d="m 59.5,46 c -0.2,0 -0.38,-0.06 -0.54,-0.17 l -14,-9 c -0.47,-0.3 -0.6,-0.92 -0.3,-1.38 0.3,-0.47 0.9,-0.6 1.38,-0.3 l 14,9 c 0.46,0.3 0.6,0.92 0.3,1.38 -0.2,0.3 -0.5,0.46 -0.84,0.46 z"
       id="path24"
       inkscape:connector-curvature="0" />
    <path
       d="m 31.5,50 c -0.33,0 -0.65,-0.17 -0.84,-0.47 -0.3,-0.46 -0.17,-1.08 0.3,-1.38 l 14,-9 c 0.46,-0.3 1.08,-0.17 1.38,0.3 0.3,0.46 0.16,1.08 -0.3,1.38 l -14,9 c -0.17,0.1 -0.35,0.16 -0.54,0.16 z"
       id="path26"
       inkscape:connector-curvature="0" />
    <path
       d="m 59.5,50 c -0.2,0 -0.38,-0.06 -0.54,-0.17 l -14,-9 c -0.47,-0.3 -0.6,-0.92 -0.3,-1.38 0.3,-0.47 0.9,-0.6 1.38,-0.3 l 14,9 c 0.46,0.3 0.6,0.92 0.3,1.38 -0.2,0.3 -0.5,0.46 -0.84,0.46 z"
       id="path28"
       inkscape:connector-curvature="0" />
    <path
       d="m 31.5,50 c -0.55,0 -1,-0.46 -1,-1 v -4 c 0,-0.56 0.45,-1 1,-1 0.55,0 1,0.44 1,1 v 4 c 0,0.54 -0.45,1 -1,1 z"
       id="path30"
       inkscape:connector-curvature="0" />
    <path
       d="m 59.5,50 c -0.56,0 -1,-0.46 -1,-1 v -4 c 0,-0.56 0.44,-1 1,-1 0.56,0 1,0.44 1,1 v 4 c 0,0.54 -0.45,1 -1,1 z"
       id="path32"
       inkscape:connector-curvature="0" />
    <path
       d="m 33.5,64 c -0.56,0 -1,-0.45 -1,-1 V 47.7 c 0,-0.55 0.44,-1 1,-1 0.56,0 1,0.45 1,1 V 63 c 0,0.55 -0.45,1 -1,1 z"
       id="path34"
       inkscape:connector-curvature="0" />
    <path
       d="m 59.5,64 h -28 c -0.56,0 -1,-0.45 -1,-1 0,-0.55 0.44,-1 1,-1 h 28 c 0.55,0 1,0.45 1,1 0,0.55 -0.45,1 -1,1 z"
       id="path36"
       inkscape:connector-curvature="0" />
    <path
       d="m 57.5,64 c -0.56,0 -1,-0.45 -1,-1 V 47.7 c 0,-0.55 0.44,-1 1,-1 0.56,0 1,0.45 1,1 V 63 c 0,0.55 -0.45,1 -1,1 z"
       id="path38"
       inkscape:connector-curvature="0" />
    <path
       d="m 48.5,64 h -6 c -0.56,0 -1,-0.45 -1,-1 v -9 c 0,-0.56 0.44,-1 1,-1 h 6 c 0.55,0 1,0.44 1,1 v 9 c 0,0.55 -0.45,1 -1,1 z m -5,-2 h 4 v -7 h -4 z"
       id="path40"
       inkscape:connector-curvature="0" />
    <path
       d="m 14.5,56 c -0.55,0 -1,-0.45 -1,-1 V 38 c 0,-0.55 0.45,-1 1,-1 0.55,0 1,0.45 1,1 v 17 c 0,0.55 -0.44,1 -1,1 z"
       id="path42"
       inkscape:connector-curvature="0" />
    <path
       d="m 29.5,56 h -15 c -0.55,0 -1,-0.45 -1,-1 0,-0.55 0.45,-1 1,-1 h 15 c 0.55,0 1,0.45 1,1 0,0.55 -0.45,1 -1,1 z"
       id="path44"
       inkscape:connector-curvature="0" />
    <path
       d="m 26.5,59 c -0.25,0 -0.5,-0.1 -0.7,-0.3 -0.4,-0.38 -0.4,-1.02 0,-1.4 l 3,-3 c 0.38,-0.4 1.02,-0.4 1.4,0 0.38,0.4 0.4,1.02 0,1.4 l -3,3 C 27,58.9 26.76,59 26.5,59 Z"
       id="path46"
       inkscape:connector-curvature="0" />
    <path
       d="M 29.5,56 C 29.25,56 29,55.9 28.8,55.7 l -3,-3 c -0.4,-0.38 -0.4,-1.02 0,-1.4 0.4,-0.38 1.02,-0.4 1.4,0 l 3,3 c 0.4,0.38 0.4,1.02 0,1.4 C 30,55.9 29.76,56 29.5,56 Z"
       id="path48"
       inkscape:connector-curvature="0" />
    <path
       d="m 45.5,33 c -0.56,0 -1,-0.45 -1,-1 V 16 c 0,-0.55 0.44,-1 1,-1 0.56,0 1,0.45 1,1 v 16 c 0,0.55 -0.45,1 -1,1 z"
       id="path50"
       inkscape:connector-curvature="0" />
    <path
       d="m 45.5,17 h -18 c -0.56,0 -1,-0.45 -1,-1 0,-0.55 0.44,-1 1,-1 h 18 c 0.55,0 1,0.45 1,1 0,0.55 -0.45,1 -1,1 z"
       id="path52"
       inkscape:connector-curvature="0" />
    <path
       d="m 27.5,17 c -0.26,0 -0.52,-0.1 -0.7,-0.3 -0.4,-0.38 -0.4,-1.02 0,-1.4 l 3,-3 c 0.38,-0.4 1,-0.4 1.4,0 0.4,0.4 0.4,1.02 0,1.4 l -3,3 C 28,16.9 27.75,17 27.5,17 Z"
       id="path54"
       inkscape:connector-curvature="0" />
    <path
       d="m 30.5,20 c -0.26,0 -0.52,-0.1 -0.7,-0.3 l -3,-3 c -0.4,-0.38 -0.4,-1.02 0,-1.4 0.4,-0.38 1,-0.4 1.4,0 l 3,3 c 0.4,0.38 0.4,1.02 0,1.4 C 31,19.9 30.75,20 30.5,20 Z"
       id="path56"
       inkscape:connector-curvature="0" />
  </g>
</svg>
