<svg xmlns="http://www.w3.org/2000/svg" width="24" height="24"><path stroke="#000" stroke-width="1.477" d="M22.34 3.75c-.7-.7-1.4-1.4-2.1-2.1-2.74 2.76-5.5 5.52-8.24 8.27-2.75-2.75-5.5-5.5-8.25-8.26-.7.7-1.4 1.4-2.1 2.1C4.43 6.5 7.18 9.25 9.93 12c-2.75 2.75-5.5 5.5-8.26 8.25.7.7 1.4 1.4 2.1 2.1 2.74-2.77 5.5-5.52 8.24-8.27 2.75 2.75 5.5 5.5 8.25 8.26.7-.7 1.4-1.4 2.1-2.1-2.76-2.74-5.52-5.5-8.27-8.24 2.75-2.75 5.5-5.5 8.26-8.25z" stroke-linecap="round" stroke-linejoin="round"/><path fill="none" d="M0-488.14h512.14V24H0z"/></svg>