<svg xmlns="http://www.w3.org/2000/svg" width="581pt" height="581pt" viewBox="-184 0 581 581.55153"><path fill="#f00" d="M107.16 0C69.7.04 39.32 30.4 39.28 67.88v325.1C10.46 416.5-3.87 453.44 1.55 490.24c8.23 58.33 62.2 98.94 120.5 90.7 52.72-7.44 91.87-52.6 91.76-105.83.1-31.8-14.14-61.98-38.77-82.12V67.88C175 30.4 144.63.04 107.16 0zm87.26 475.1c.06 48.2-38.95 87.33-87.15 87.4-48.2.06-87.32-38.96-87.38-87.16-.04-27.5 12.9-53.42 34.9-69.92 2.44-1.83 3.88-4.7 3.88-7.76v-29.2h19.4v-19.4h-19.4v-29.1h19.4V300.6h-19.4v-29.1h19.4V252.1h-19.4V223h19.4v-19.38h-19.4v-29.1h19.4v-19.38h-19.4v-29.1h19.4v-19.38h-19.4V67.88c0-26.78 21.7-48.5 48.48-48.5 26.77 0 48.48 21.72 48.48 48.5v329.8c0 3.05 1.43 5.93 3.88 7.75 22.02 16.4 34.96 42.24 34.9 69.68zm0 0"/><path fill="#f00" d="M116.85 427.6V87.27h-19.4V427.6c-26.22 5.36-43.15 30.96-37.8 57.2s30.97 43.16 57.2 37.8c26.24-5.35 43.16-30.96 37.8-57.2-3.88-19.04-18.76-33.9-37.8-37.8zm-9.7 76.6c-16.06 0-29.08-13.02-29.08-29.1 0-16.05 13.02-29.08 29.1-29.08s29.08 13.03 29.08 29.1c0 16.06-13.03 29.08-29.1 29.08zm0 0"/></svg>