<svg xmlns="http://www.w3.org/2000/svg" width="24" height="24" viewBox="0 -1 17.999999 17.999999"><g fill="#67c1b0"><path d="M12.44 13.22c0-1.9-2.72-3.44-6.08-3.44C3 9.78.3 11.32.3 13.22s2.7 3.45 6.06 3.45c3.36 0 6.08-1.54 6.08-3.45zM17.7 6.3c0-1.57-2.2-2.82-4.94-2.82S7.8 4.73 7.8 6.28c0 1.56 2.22 2.82 4.96 2.82 2.74 0 4.95-1.26 4.95-2.8zM2.66 5c-.65.34-1.1 1.03-1.1 1.82 0 .02 0 .05 0 .07.05 1.4 2.14 1.4 2.2 0 0 0 0-.04 0-.06 0-.8-.45-1.48-1.1-1.82zm0 0"/></g><path fill="#51a2af" d="M2.65 8.02c-.54 0-1.07-.34-1.1-1.04 0-.02 0-.05 0-.07 0-.78.45-1.46 1.1-1.8-.26.34-.43 1.02-.43 1.8 0 .03 0 .06 0 .08 0 .7.22 1.04.43 1.04zm0 0"/><path fill="#67c1b0" d="M6.45-.74C5.8-.4 5.35.3 5.35 1.06c0 .04 0 .06 0 .1.06 1.37 2.15 1.37 2.2 0 0-.04 0-.06 0-.1 0-.77-.45-1.46-1.1-1.8zm0 0"/><path fill="#51a2af" d="M6.46 2.26c-.54 0-1.07-.35-1.1-1.04 0-.02 0-.05 0-.07 0-.8.44-1.47 1.1-1.82-.26.35-.44 1.03-.44 1.82 0 .02 0 .05 0 .07 0 .7.22 1.04.44 1.04zm0 0"/><path fill="#67c1b0" d="M15.2-.5c-.64.35-1.08 1.04-1.08 1.83 0 .02 0 .05 0 .07.05 1.38 2.14 1.38 2.2 0 0-.02 0-.05 0-.07 0-.8-.46-1.48-1.1-1.82zm0 0"/><path fill="#51a2af" d="M15.22 2.5c-.54 0-1.07-.34-1.1-1.03 0-.02 0-.05 0-.07 0-.8.44-1.47 1.1-1.82-.26.35-.44 1.03-.44 1.82 0 .02 0 .05 0 .07 0 .7.22 1.04.43 1.04zm0 0"/><path d="M6.36 16.4c-1.58 0-3.05-.34-4.16-.97-1.06-.6-1.65-1.4-1.65-2.2 0-.65.36-1.27 1.03-1.8.12-.1.14-.26.05-.38-.1-.1-.26-.13-.38-.04-.8.65-1.23 1.4-1.23 2.22 0 1.02.68 1.97 1.9 2.67 1.2.67 2.77 1.04 4.44 1.04.15 0 .27-.12.27-.27 0-.15-.12-.27-.27-.27zm4.43-5.85C9.6 9.88 8.02 9.5 6.35 9.5c-1 0-2 .15-2.9.4-.14.06-.22.2-.18.35.04.14.2.22.34.18.84-.25 1.78-.4 2.74-.4 1.58 0 3.06.36 4.17 1 1.06.6 1.64 1.37 1.64 2.2 0 .6-.33 1.2-.96 1.74-.64.53-1.55.94-2.62 1.2-.14.02-.23.17-.2.3.03.13.14.22.26.22.02 0 .04-.02.06-.02 2.44-.56 4-1.92 4-3.46 0-1.02-.67-1.97-1.9-2.67zm-4.44 4.58c-.8 0-1.55-.14-2.18-.4-.14-.07-.3 0-.36.13-.05.13 0 .3.15.35.7.3 1.52.46 2.4.46 1.06 0 2.07-.24 2.83-.67.8-.47 1.26-1.1 1.26-1.78 0-.2-.04-.4-.1-.58-.07-.13-.22-.2-.36-.15-.14.05-.2.2-.15.34.05.13.08.25.08.38 0 1.04-1.64 1.9-3.57 1.9zm2.6-3.8c-.72-.35-1.65-.55-2.6-.55-1.07 0-2.07.24-2.84.67-.8.46-1.26 1.1-1.26 1.77 0 .36.12.7.36 1 .05.08.13.12.2.12s.13-.02.17-.06c.1-.08.14-.25.05-.37-.17-.2-.25-.44-.25-.68 0-1.03 1.63-1.9 3.56-1.9.87 0 1.7.17 2.37.5.13.05.3 0 .36-.13.05-.15 0-.3-.14-.37zm-2.6 1.32c.35 0 .68.08.92.2.12.1.3.04.36-.1.07-.12.03-.28-.1-.35-.32-.18-.74-.28-1.18-.28-.97 0-1.74.48-1.74 1.1 0 .62.77 1.1 1.74 1.1.44 0 .86-.1 1.18-.27.13-.08.17-.24.1-.37s-.24-.17-.36-.1c-.24.14-.57.2-.92.2-.7 0-1.2-.3-1.2-.56 0-.27.5-.57 1.2-.57zM16.4 4.07c-.98-.56-2.27-.86-3.64-.86-.15 0-.27.13-.27.28 0 .14.1.26.26.26 1.28 0 2.48.28 3.37.8.85.47 1.32 1.1 1.32 1.75 0 .62-.44 1.1-.8 1.4-.13.1-.15.26-.05.38.05.06.13.1.2.1.06 0 .12-.02.17-.06.66-.53 1-1.16 1-1.83 0-.86-.55-1.65-1.57-2.23zm-1.8 4.55c-.6.14-1.2.2-1.84.2-1.28 0-2.47-.27-3.37-.78-.86-.48-1.33-1.1-1.33-1.75 0-.46.23-.9.66-1.3.45-.4 1.08-.74 1.84-.96.14-.04.23-.2.18-.33-.04-.13-.18-.2-.33-.17-1.78.52-2.88 1.57-2.88 2.76 0 .84.56 1.63 1.6 2.2.96.56 2.25.86 3.62.86.67 0 1.33-.07 1.95-.2.15-.05.24-.2.2-.34-.03-.14-.17-.23-.3-.2zM12.57 6.7c-.27 0-.53-.06-.7-.16-.14-.08-.3-.03-.38.1-.07.13-.03.3.1.36.27.15.62.24.98.24.83 0 1.48-.42 1.48-.95 0-.55-.65-.96-1.48-.96-.36 0-.7.08-.98.23-.13.07-.17.24-.1.37.07.12.24.17.36.1.2-.1.45-.17.72-.17.58 0 .94.25.94.42 0 .16-.37.4-.94.4zm-.86-1.8c.33-.08.68-.12 1.04-.12.8 0 1.53.17 2.08.5.04 0 .08.02.13.02.1 0 .18-.05.23-.13.07-.13.03-.3-.1-.37-.63-.35-1.46-.55-2.34-.55-.4 0-.78.04-1.15.12-.14.03-.23.17-.2.3.03.16.17.25.32.22zm3.76.48c-.12.1-.14.26-.06.38.13.17.2.35.2.53 0 .8-1.3 1.5-2.86 1.5-1.55 0-2.85-.7-2.85-1.5 0-.16-.1-.28-.26-.28-.15 0-.27.12-.27.27 0 1.13 1.5 2.02 3.4 2.02s3.38-.9 3.38-2.03c0-.3-.1-.6-.3-.86-.1-.12-.25-.15-.37-.06zM2.65 8.28C3.3 8.3 3.98 7.85 4 7c0 0 0-.04 0-.07 0-.85-.46-1.64-1.23-2.04-.07-.05-.17-.05-.25 0-.76.4-1.23 1.2-1.23 2.05 0 .04 0 .07 0 .1.02.84.7 1.3 1.35 1.3zm0-2.88c.5.33.82.9.82 1.5 0 .03 0 .05 0 .07-.02.54-.42.78-.82.78-.4 0-.8-.24-.83-.78 0-.02 0-.04 0-.06 0-.6.32-1.17.83-1.5zm3.8-2.87c.66 0 1.33-.45 1.36-1.3.02-.03.02-.05.02-.08C7.82.3 7.34-.5 6.58-.9c-.08-.05-.17-.05-.25 0C5.57-.5 5.1.3 5.1 1.14c0 .03 0 .05 0 .08.03.85.7 1.3 1.36 1.3zm0-2.9c.52.34.83.9.83 1.52 0 .02 0 .04 0 .06-.02.55-.43.8-.83.8-.4 0-.8-.25-.82-.8 0 0 0-.03 0-.05 0-.62.3-1.18.82-1.5zm8.77 3.15c.65 0 1.32-.45 1.35-1.3 0-.03 0-.05 0-.08 0-.86-.47-1.65-1.23-2.05-.08-.05-.17-.05-.25 0-.77.4-1.25 1.2-1.25 2.05 0 .03 0 .06 0 .08.04.85.7 1.3 1.36 1.3zm0-2.9c.5.34.82.9.82 1.52 0 .02 0 .04 0 .06-.02.54-.43.78-.82.78-.4 0-.8-.24-.83-.78 0-.02 0-.04 0-.06 0-.62.3-1.18.8-1.5zm0 0"/></svg>