<svg xmlns="http://www.w3.org/2000/svg" width="24" height="24" viewBox="-129 -20 18 18.018819"><path d="M-114.5-8c0-3.02-5.04-11.2-5.25-11.55-.06-.08-.15-.12-.25-.12s-.2.04-.25.12c-.2.35-5.25 8.53-5.25 11.55 0 3.14 2.47 5.7 5.5 5.7s5.5-2.56 5.5-5.7zm-5.5 5.1c-2.7 0-4.92-2.28-4.92-5.1 0-2.5 3.9-9.13 4.92-10.84 1.03 1.7 4.92 8.34 4.92 10.84 0 2.82-2.2 5.1-4.92 5.1zm1.62-6.88c-.07-.05-.14-.07-.22-.05-.08 0-.14.05-.2.1l-2.9 4.07c-.08.13-.05.3.08.4.13.1.3.07.4-.06l2.9-4.06c.1-.13.07-.3-.06-.4zm-2.2 1.1c0-.65-.38-1.16-.87-1.16-.5 0-.87.5-.87 1.16 0 .65.38 1.16.87 1.16.5 0 .87-.5.87-1.16zm-1.16 0c0-.35.17-.58.3-.58.1 0 .28.23.28.58 0 .36-.17.58-.3.58-.1 0-.28-.22-.28-.58zm3.2 1.16c-.5 0-.88.5-.88 1.16 0 .65.38 1.16.87 1.16.5 0 .87-.5.87-1.16 0-.65-.38-1.16-.87-1.16zm0 1.74c-.13 0-.3-.23-.3-.58 0-.36.17-.58.3-.58.1 0 .28.22.28.58 0 .35-.17.58-.3.58zm0 0"/></svg>