<?xml version="1.0" encoding="UTF-8" standalone="no"?>
<!-- Created with Inkscape (http://www.inkscape.org/) -->

<svg
   width="9.5249977mm"
   height="9.5249939mm"
   viewBox="0 0 9.5249977 9.5249939"
   version="1.1"
   id="svg250"
   xmlns="http://www.w3.org/2000/svg"
   xmlns:svg="http://www.w3.org/2000/svg">
  <defs
     id="defs247" />
  <g
     id="layer1"
     transform="translate(-38.362836,-162.98333)">
    <rect
       style="fill:#00ab00;stroke:#000000;stroke-width:0.381332;stroke-linejoin:miter;stroke-miterlimit:3.5;stroke-dasharray:none"
       id="rect234-1"
       width="0.10466758"
       height="5.4421716"
       x="38.554573"
       y="166.74078" />
    <rect
       style="fill:#00ab00;stroke:#000000;stroke-width:0.381332;stroke-linejoin:miter;stroke-miterlimit:3.5;stroke-dasharray:none"
       id="rect234-2-4"
       width="0.10466758"
       height="5.4421716"
       x="42.444717"
       y="166.74078" />
    <rect
       style="fill:#000000;fill-opacity:1;stroke:#ffffff;stroke-width:0.138331;stroke-linejoin:miter;stroke-miterlimit:3.5;stroke-dasharray:none;stroke-opacity:1"
       id="rect947"
       width="3.0366695"
       height="5.6825027"
       x="39.04229"
       y="166.62437" />
    <g
       id="g13510"
       transform="matrix(0.01920952,0,0,0.01650365,37.591632,162.99159)"
       style="fill:#309062;fill-opacity:0.564948;stroke:#636363;stroke-opacity:0.9">
	<g
   id="g13508"
   style="fill:#309062;fill-opacity:0.564948;stroke:#636363;stroke-opacity:0.9">
		<path
   d="m 277.138,81.686 c -11.775,0 -20.657,8.707 -20.657,20.249 v 235.506 c -5.349,-8.631 -10.951,-17.096 -16.458,-25.424 -23.583,-35.634 -45.855,-69.29 -47.234,-110.306 -0.334,-9.919 -7.678,-19.959 -21.073,-19.959 -5.765,0 -11.208,2.211 -14.937,6.067 -3.656,3.778 -5.484,8.772 -5.292,14.439 1.697,50.531 27.858,90.715 53.154,129.576 8.062,12.387 16.401,25.195 23.75,38.076 14.868,26.051 24.056,56.189 28.095,92.133 v 85.633 c 0,1.754 0.22,3.467 0.665,5.193 l -0.017,0.256 c -0.049,0.752 -0.094,1.502 -0.147,2.248 -0.412,5.713 1.257,10.764 4.831,14.604 3.647,3.92 9.078,6.168 14.9,6.168 10,0 20.608,-6.732 21.538,-19.596 2.722,-37.586 2.575,-68.373 -0.457,-96.834 V 373.98 c 13.913,-21.758 51.67,-32.455 71.417,-41.334 28.687,-12.896 52.991,-31.232 63.423,-61.897 7.646,-22.481 -27.825,-32.048 -35.41,-9.764 -12.958,38.099 -67.059,45.329 -97.842,63.272 -0.543,0.314 -1.053,0.674 -1.588,1 V 101.935 C 297.794,90.388 288.913,81.686 277.138,81.686 Z"
   id="path13504"
   style="fill:#309062;fill-opacity:0.564948;stroke:#636363;stroke-opacity:0.9" />

		<path
   d="m 45.724,174.849 c -11.562,36.92 -3.04,82.738 22.244,119.573 23.003,33.512 55.994,54.006 90.519,56.227 0.559,0.035 1.11,0.053 1.644,0.053 11.82,0 20.682,-8.846 21.073,-21.033 0.359,-11.162 -7.116,-23.533 -21.669,-24.467 -23.076,-1.486 -39.253,-16.37 -48.764,-28.593 -18.474,-23.746 -27.573,-57.496 -22.636,-83.983 5.892,-31.64 35.1,-57.381 65.108,-57.381 13.117,0 25.096,4.72 35.61,14.035 1.151,1.02 2.403,1.917 3.811,2.733 3.786,3.325 8.613,5.145 13.717,5.145 8.254,0 16.349,-4.659 20.62,-11.869 4.035,-6.814 4.08,-14.864 0.126,-22.081 -12.733,-23.231 3.093,-49.05 25.312,-62.546 16.312,-9.91 39.156,-14.933 67.899,-14.933 6.369,0 12.938,0.232 20.09,0.709 27.928,1.865 52.311,15.782 68.659,39.197 17.743,25.414 23.239,58.271 14.77,88.05 -3.46,6.908 -3.265,15.659 0.571,22.595 3.822,6.912 10.673,11.098 18.8,11.481 13.493,0.641 24.611,7.85 33.049,21.428 16.055,25.839 16.393,63.835 7.499,84.216 -17.014,38.988 -68.516,47.482 -105.778,50.48 -1.045,0.086 -2.081,0.246 -3.195,0.494 -14.521,0.262 -22.248,11.262 -22.374,22.131 -0.151,12.664 -8.956,21.814 -21.412,22.252 -14.521,0.51 -22.15,12.582 -21.959,23.688 0.221,12.633 9.315,21.801 21.62,21.801 0.298,0 0.604,-0.006 0.91,-0.018 29.408,-1.027 53.966,-19.441 62.804,-46.447 77.687,-9.469 123.917,-41.652 137.459,-95.717 13.158,-52.521 -9.89,-122.697 -60.176,-143.603 C 478.28,129.51 469.08,91.13 445.445,59.689 419.395,25.055 378.709,3.476 333.8,0.481 329.027,0.164 324.188,0 319.422,0 276.795,0 237.761,12.656 209.52,35.639 192.388,49.576 181.131,70.613 178.247,93.387 170.23,91.245 161.988,90.168 153.637,90.164 105.716,90.16 61.338,124.987 45.724,174.849 Z"
   id="path13506"
   style="fill:#309062;fill-opacity:0.564948;stroke:#636363;stroke-opacity:0.9" />

	</g>

</g>
  </g>
</svg>
